<svg width="520" height="347" viewBox="0 0 520 347" fill="none" xmlns="http://www.w3.org/2000/svg">
<g clip-path="url(#clip0_6865_61575)">
<path d="M410 142.216C378.257 132.652 381.784 117.503 366.817 74.46C351.85 31.4167 283.731 27.43 236.942 69.6822C190.154 111.934 172.814 47.3633 122.024 77.6533C69.598 108.92 99.6191 142.22 65.6313 181.209C31.6436 220.198 61.0302 289.44 113.439 289.44H374.174C405.588 289.44 435.234 272.019 452.525 242.381C452.931 241.685 453.333 240.979 453.73 240.264C472.778 205.983 441.738 151.778 410 142.216Z" fill="#FFF0ED"/>
<path d="M238.913 306.667C333.447 306.667 410.081 301.012 410.081 294.037C410.081 287.061 333.447 281.407 238.913 281.407C144.38 281.407 67.7456 287.061 67.7456 294.037C67.7456 301.012 144.38 306.667 238.913 306.667Z" fill="#FAB9AC"/>
<path d="M305.838 77.5622C299.582 75.3067 293.981 80.5911 295.137 86.9534C296.292 93.3156 301.18 94.6322 302.216 95.1389C303.251 95.6456 305.104 97.27 305.024 97.4478L310.674 94.8133C310.674 94.8133 310.573 92.5434 310.921 90.8634C311.349 88.7945 312.092 79.8178 305.838 77.5622Z" fill="#F3CE90"/>
<path d="M308.222 100.68C308.222 100.68 308.98 102.608 310.409 101.934C311.838 101.261 311.075 99.1567 311.075 99.1567L308.222 100.68Z" fill="#93493A"/>
<path d="M307.31 98.1322C307.134 98.1567 305.693 99.1089 305.693 99.1089C305.693 99.1089 305.516 100.623 306.841 101.109C308.167 101.594 311.082 100.007 311.869 99.1778C312.656 98.3489 312.091 97.32 311.638 96.6656C311.185 96.0111 307.488 98.1111 307.31 98.1322Z" fill="#EF7C59"/>
<path d="M310.851 94.3867C310.218 94.1711 309.53 94.6922 308.985 94.9422C308.39 95.2133 307.806 95.5067 307.207 95.7678C306.528 96.0644 305.797 96.2722 305.172 96.6811C304.933 96.8214 304.746 97.0354 304.638 97.2911C304.499 97.66 304.599 98.0789 304.822 98.5356C305.032 98.9706 305.403 99.3075 305.856 99.4756C307.319 100.016 310.534 98.2589 311.401 97.3456C311.589 97.1471 311.722 96.9034 311.788 96.6381C311.853 96.3729 311.849 96.0952 311.775 95.8322C311.642 95.2967 311.445 94.5878 310.851 94.3867Z" fill="#EF7C59"/>
<path d="M308.204 87.1978C307.691 86.9267 306.989 87.0311 306.482 87.2633C305.995 87.484 305.595 87.8604 305.346 88.3333C304.871 88.1945 304.363 88.2245 303.908 88.4182C303.452 88.6119 303.078 88.9572 302.849 89.3956C302.832 89.3956 302.816 89.3956 302.798 89.3889C302.48 89.3714 302.165 89.455 301.897 89.6276C301.63 89.8003 301.424 90.0531 301.309 90.35C301.028 91.0233 301.198 91.7944 301.48 92.4344C301.769 93.0874 302.199 93.6686 302.738 94.1367C303.309 94.6378 303.927 94.9011 304.659 95.0778C304.958 95.15 305.086 94.6744 304.802 94.5667C304.027 94.2621 303.34 93.77 302.802 93.1344C302.326 92.5589 301.834 91.7255 301.924 90.95C301.966 90.5955 302.17 90.2122 302.55 90.1344C302.573 90.1344 302.597 90.1289 302.62 90.1267C302.584 90.425 302.61 90.7276 302.696 91.0156C302.852 91.5389 303.233 92.0544 303.778 92.2178C304.273 92.3656 304.869 92.1289 305.018 91.6111C305.198 90.9889 304.617 90.47 304.198 90.0955C303.998 89.9115 303.777 89.7519 303.539 89.62C303.632 89.467 303.754 89.3347 303.9 89.2311C304.073 89.1078 304.27 89.0239 304.479 88.9855C304.687 88.9471 304.902 88.9551 305.107 89.0089C305.029 89.4109 305.055 89.8259 305.18 90.2156C305.346 90.7289 305.79 91.31 306.408 91.1189C306.977 90.9422 306.958 90.2967 306.827 89.8267C306.693 89.3469 306.397 88.9284 305.989 88.6422C306.122 88.406 306.31 88.2047 306.536 88.0545C306.762 87.9043 307.02 87.8095 307.289 87.7778C307.497 87.7533 307.757 87.7467 307.928 87.88C308.099 88.0133 308.207 88.2722 308.308 88.47C308.532 88.9135 308.715 89.3765 308.855 89.8533C309.125 90.78 309.157 91.6933 309.131 92.6411C309.106 92.6397 309.08 92.6465 309.059 92.6605C309.038 92.6745 309.021 92.6949 309.012 92.7189C308.984 92.7901 308.977 92.8677 308.99 92.943C309.004 93.0183 309.038 93.0884 309.089 93.1454C309.14 93.2024 309.206 93.2441 309.279 93.2659C309.353 93.2877 309.431 93.2888 309.505 93.2689C309.579 93.258 309.647 93.2242 309.701 93.1721C309.755 93.1201 309.791 93.0525 309.805 92.9789C310.052 91.6167 309.769 90.09 309.257 88.8167C309.038 88.2722 308.756 87.4889 308.204 87.1978ZM304.268 91.2289C304.352 91.4078 304.285 91.5389 304.08 91.5433C303.858 91.5433 303.652 91.31 303.547 91.1455C303.395 90.909 303.317 90.6322 303.325 90.3511C303.37 90.3811 303.416 90.4122 303.458 90.4433C303.727 90.6355 304.125 90.9311 304.268 91.2289ZM306.111 90.4233C306 90.4233 305.889 90.09 305.861 90.0022C305.797 89.8063 305.769 89.6004 305.777 89.3944C305.827 89.4423 305.874 89.4943 305.916 89.55C306.007 89.6733 306.368 90.4344 306.111 90.4233Z" fill="white"/>
<path opacity="0.72" d="M297.823 81.3611C297.488 81.5174 297.207 81.7704 297.017 82.0878C296.85 82.3445 296.708 82.6169 296.594 82.9011C296.392 83.4299 296.264 83.9846 296.216 84.5489C296.174 85.1705 296.199 85.7948 296.29 86.4111C296.331 86.7278 296.347 87.1089 296.476 87.4022C296.56 87.6415 296.719 87.8472 296.93 87.9889C297.066 88.0749 297.225 88.1182 297.385 88.1132C297.546 88.1083 297.702 88.0553 297.832 87.9611C298.41 87.5389 298.227 86.7144 298.21 86.1033C298.21 85.98 298.21 85.8578 298.21 85.7344V85.7233C298.21 85.6533 298.21 85.5833 298.219 85.5133C298.232 85.2622 298.254 85.0089 298.287 84.7589C298.313 84.5533 298.353 84.3511 298.398 84.1489C298.398 84.1444 298.398 84.14 298.398 84.1355C298.41 84.0978 298.421 84.06 298.433 84.0244C298.468 83.9211 298.506 83.82 298.544 83.72C298.583 83.62 298.631 83.5222 298.681 83.4255C298.702 83.3833 298.726 83.3411 298.748 83.2989C298.757 83.2822 298.79 83.2255 298.798 83.21L298.81 83.1911L298.892 83.0744C299.02 82.869 299.113 82.6437 299.167 82.4078C299.366 81.6911 298.451 81.07 297.823 81.3611Z" fill="white"/>
<g opacity="0.72">
<path d="M300.707 80.5433L300.731 80.5311L300.92 80.42L300.707 80.5433Z" fill="white"/>
<path d="M300.967 78.5944C300.703 78.5551 300.435 78.6115 300.21 78.7533C300.041 78.8431 299.876 78.9413 299.717 79.0478C299.568 79.1589 299.433 79.2868 299.313 79.4289C299.135 79.6299 299.042 79.8917 299.052 80.16C299.043 80.3332 299.102 80.5031 299.216 80.6336C299.331 80.7641 299.491 80.8449 299.664 80.8589L299.7 80.8678L299.668 80.8589C299.787 80.8847 299.91 80.8817 300.028 80.85C300.087 80.8355 300.144 80.82 300.202 80.8033C300.265 80.7833 300.325 80.7565 300.382 80.7233C300.5 80.6622 300.616 80.5967 300.731 80.5311L300.707 80.5433L300.92 80.4233L300.731 80.5344C301.016 80.38 301.356 80.2822 301.541 80.0011C301.635 79.8796 301.695 79.7354 301.716 79.5831C301.737 79.4309 301.717 79.2758 301.659 79.1336C301.601 78.9914 301.506 78.867 301.385 78.773C301.263 78.6789 301.119 78.6185 300.967 78.5978V78.5944Z" fill="white"/>
</g>
<path d="M298.175 95.9078C298.053 95.8774 297.925 95.8828 297.806 95.9233H297.818H297.792H297.75C297.622 95.9437 297.5 95.9927 297.393 96.0667C297.345 96.0978 297.299 96.1322 297.252 96.1656C297.151 96.2315 297.056 96.3059 296.968 96.3878C296.711 96.6333 296.412 96.8756 296.348 97.2378C296.326 97.2894 296.308 97.3421 296.292 97.3956C296.271 97.4431 296.264 97.4952 296.27 97.5467C296.27 97.5611 296.27 97.5756 296.27 97.5889C296.27 97.6022 296.27 97.6222 296.262 97.6389C296.253 97.7075 296.26 97.7773 296.282 97.8429C296.304 97.9085 296.341 97.9682 296.389 98.0176C296.438 98.067 296.497 98.1048 296.562 98.1281C296.627 98.1514 296.697 98.1597 296.765 98.1522C296.783 98.151 296.8 98.151 296.818 98.1522C296.754 98.1465 296.692 98.1323 296.633 98.11C296.756 98.1565 296.889 98.1646 297.016 98.1333C297.068 98.12 297.118 98.1033 297.168 98.0867C297.361 98.0592 297.541 97.9766 297.689 97.8489C297.779 97.7667 297.864 97.68 297.953 97.5956C298.074 97.4814 298.185 97.3581 298.286 97.2267C298.321 97.1822 298.358 97.1378 298.39 97.0911C298.466 96.9795 298.518 96.853 298.542 96.72L298.553 96.6833C298.595 96.5771 298.606 96.4609 298.583 96.3488C298.56 96.2368 298.506 96.1337 298.425 96.0522C298.356 95.9829 298.27 95.9331 298.175 95.9078ZM293.444 89.3011C293.051 89.1189 292.59 89.2811 292.222 89.4567C292.08 89.5244 291.944 89.61 291.809 89.6867C291.676 89.7509 291.559 89.843 291.465 89.9567C291.442 89.9867 291.422 90.02 291.402 90.0511C291.346 90.132 291.302 90.2208 291.272 90.3144C291.242 90.3964 291.233 90.4848 291.246 90.5711C291.246 90.6067 291.254 90.5922 291.258 90.5267C291.245 90.6321 291.266 90.739 291.319 90.8312C291.371 90.9235 291.452 90.9964 291.55 91.0389C291.392 90.9722 291.632 91.0989 291.654 91.1089C291.775 91.155 291.905 91.1718 292.034 91.1578C292.168 91.1585 292.3 91.1301 292.421 91.0744C292.612 90.9812 292.798 90.8766 292.976 90.7611C293.316 90.5322 293.681 90.2556 293.741 89.8233C293.754 89.716 293.732 89.6073 293.679 89.5133C293.625 89.4192 293.543 89.3449 293.444 89.3011ZM292.845 81.6756L292.798 81.6356L292.715 81.5567C292.641 81.5027 292.558 81.4611 292.47 81.4333C292.314 81.3794 292.155 81.3371 291.993 81.3067C291.817 81.2902 291.64 81.2966 291.465 81.3256C291.406 81.3311 291.348 81.3344 291.289 81.3411C291.19 81.3555 291.093 81.3782 290.999 81.4089C290.84 81.4357 290.691 81.5039 290.568 81.6067C290.52 81.6518 290.468 81.6913 290.412 81.7244C290.305 81.8055 290.234 81.925 290.213 82.0578C290.196 82.1964 290.233 82.3364 290.315 82.4489C290.469 82.6834 290.708 82.8491 290.982 82.9111C291.196 82.9471 291.415 82.9418 291.626 82.8956C291.838 82.8649 292.046 82.8085 292.244 82.7278C292.309 82.6956 292.374 82.6656 292.441 82.64C292.518 82.6113 292.592 82.5764 292.663 82.5356C292.686 82.5256 292.71 82.5156 292.733 82.5078C292.813 82.4766 292.882 82.4249 292.935 82.3579C292.988 82.291 293.022 82.2112 293.034 82.1267C293.044 82.0416 293.032 81.9555 292.999 81.8765C292.966 81.7975 292.913 81.7284 292.845 81.6756ZM297.622 74.8489C297.563 74.7185 297.488 74.5957 297.4 74.4833C297.346 74.4089 297.295 74.3311 297.238 74.2611C297.094 74.0691 296.933 73.892 296.754 73.7322C296.668 73.6681 296.576 73.6106 296.481 73.56C296.361 73.4911 296.225 73.4558 296.086 73.4578C295.956 73.4578 295.963 73.4578 296.108 73.4578H296.036C295.885 73.4407 295.733 73.4803 295.609 73.5689C295.492 73.6591 295.414 73.7908 295.392 73.9367L295.384 73.9956C295.428 73.8511 295.431 73.8411 295.395 73.9678C295.347 74.1325 295.354 74.3086 295.415 74.4689C295.465 74.6056 295.533 74.7346 295.619 74.8522C295.776 75.0506 295.948 75.2364 296.134 75.4078C296.299 75.5869 296.496 75.7335 296.715 75.84C296.791 75.8722 296.868 75.9078 296.945 75.9367C297.086 75.9942 297.244 75.9959 297.386 75.9414C297.528 75.8869 297.644 75.7803 297.71 75.6433C297.806 75.4611 297.75 75.2778 297.699 75.0878C297.666 75.0189 297.653 74.93 297.622 74.8489ZM307.111 71.9867L307.131 72.0211C307.1 71.9207 307.053 71.8259 306.992 71.74C306.973 71.719 306.952 71.6993 306.93 71.6811C306.923 71.667 306.914 71.6536 306.904 71.6411C306.84 71.5625 306.754 71.506 306.656 71.4797C306.558 71.4533 306.454 71.4585 306.36 71.4944C306.345 71.4992 306.33 71.5052 306.316 71.5122C306.258 71.5259 306.202 71.5476 306.15 71.5767C306.084 71.6159 306.019 71.6586 305.958 71.7045L306.006 71.6767C306.048 71.65 306.091 71.6255 306.135 71.6033L306.006 71.6767C305.828 71.7931 305.685 71.957 305.594 72.15C305.526 72.2811 305.473 72.4199 305.438 72.5633L305.285 73.1189C305.152 73.6033 305.073 74.1511 305.384 74.5856C305.466 74.6884 305.579 74.7624 305.706 74.7966C305.833 74.8308 305.967 74.8234 306.09 74.7756C306.582 74.5767 306.808 74.0511 306.953 73.5789C307.01 73.3956 307.064 73.2133 307.123 73.0233C307.167 72.8822 307.196 72.737 307.21 72.59C307.221 72.4903 307.221 72.3897 307.21 72.29C307.197 72.1835 307.163 72.0805 307.111 71.9867Z" fill="#F3CE90"/>
<path d="M306 71.6767L306.129 71.6033C306.085 71.6255 306.042 71.65 306 71.6767ZM314.578 81.2344L314.556 81.2222C314.538 81.2133 314.522 81.2022 314.504 81.1933C314.374 81.1347 314.228 81.1176 314.088 81.1444H314.114C314.17 81.1417 314.225 81.1417 314.28 81.1444H314.111C313.983 81.1483 313.856 81.1735 313.737 81.2189C313.604 81.2659 313.477 81.3274 313.358 81.4022C313.228 81.4867 313.101 81.5767 312.972 81.6633C312.844 81.7499 312.723 81.8469 312.61 81.9533C312.422 82.1278 312.202 82.3689 312.191 82.6444C312.178 82.7695 312.205 82.8955 312.267 83.0048C312.329 83.1141 312.424 83.2013 312.538 83.2544C312.786 83.3811 313.107 83.3222 313.353 83.24C313.501 83.1931 313.643 83.1324 313.779 83.0589L314.184 82.8367C314.44 82.7036 314.654 82.5025 314.802 82.2556C314.897 82.1117 314.941 81.9405 314.928 81.7689C314.928 81.7433 314.928 81.7178 314.928 81.6911C314.921 81.4889 314.747 81.3122 314.578 81.2344Z" fill="#F3CE90"/>
<path d="M314.111 81.1456H314.277C314.221 81.1428 314.166 81.1428 314.111 81.1456ZM316.387 90.7289C316.285 90.6669 316.171 90.6289 316.053 90.6178C315.925 90.6067 315.795 90.6067 315.667 90.6178C315.537 90.6322 315.405 90.6433 315.274 90.6511C315.207 90.6511 315.138 90.6511 315.071 90.6633C315.004 90.6756 314.948 90.6911 314.887 90.7033C314.774 90.7207 314.662 90.7459 314.553 90.7789C314.492 90.8011 314.433 90.8311 314.372 90.8556C313.981 91.0133 313.861 91.6011 314.235 91.8556C314.374 91.9563 314.526 92.0367 314.687 92.0945C314.866 92.1587 315.053 92.2008 315.242 92.22C315.728 92.2545 316.335 92.3311 316.654 91.8733C316.75 91.7422 316.803 91.5846 316.805 91.4222C316.815 91.2526 316.761 91.0856 316.654 90.9533C316.576 90.8662 316.486 90.7906 316.387 90.7289Z" fill="#F3CE90"/>
<path opacity="0.49" d="M311.771 96.6134L311.704 96.5734C311.651 96.5506 311.592 96.5457 311.535 96.5593C311.479 96.5729 311.429 96.6044 311.392 96.649C310.941 96.8056 310.504 97.1145 310.094 97.3389L308.649 98.1256C307.782 98.5945 306.902 99.0845 305.897 99.1523C305.55 99.1756 305.621 99.6867 305.959 99.6778C306.994 99.6523 307.95 99.2334 308.856 98.7756L310.369 97.9978C310.849 97.7534 311.437 97.5423 311.851 97.1978C312.066 97.0234 312 96.7423 311.771 96.6134Z" fill="#666666"/>
<path opacity="0.38" d="M90.2146 107.354H48.5291C47.6037 107.354 46.8535 108.105 46.8535 109.03V127.528C46.8535 128.453 47.6037 129.203 48.5291 129.203H90.2146C91.14 129.203 91.8902 128.453 91.8902 127.528V109.03C91.8902 108.105 91.14 107.354 90.2146 107.354Z" fill="#5681BF"/>
<path opacity="0.38" d="M79.3567 128.989L84.7567 133.844L84.8289 128.561L78.6367 127.918L79.3567 128.989Z" fill="#5681BF"/>
<path d="M92.0813 106.329H50.3958C49.4704 106.329 48.7202 107.079 48.7202 108.004V126.717C48.7202 127.642 49.4704 128.392 50.3958 128.392H92.0813C93.0067 128.392 93.7569 127.642 93.7569 126.717V108.004C93.7569 107.079 93.0067 106.329 92.0813 106.329Z" fill="#414347"/>
<path d="M67.5189 115.326H54.5455C54.251 115.326 54.0122 115.564 54.0122 115.859V123.36C54.0122 123.655 54.251 123.893 54.5455 123.893H67.5189C67.8134 123.893 68.0522 123.655 68.0522 123.36V115.859C68.0522 115.564 67.8134 115.326 67.5189 115.326Z" fill="#E58471"/>
<path d="M87.7853 110.613H54.5842C54.4474 110.613 54.3364 110.724 54.3364 110.861V112.614C54.3364 112.751 54.4474 112.862 54.5842 112.862H87.7853C87.9222 112.862 88.0331 112.751 88.0331 112.614V110.861C88.0331 110.724 87.9222 110.613 87.7853 110.613Z" fill="white"/>
<path d="M86.9164 133.14L86.9887 128.286L80.8687 128.142L86.9164 133.14Z" fill="#5681BF"/>
<path d="M129.897 104.427L128.948 104.11C128.948 104.11 124.614 103.301 124.443 102.619C124.272 101.937 123.888 100.079 123.888 100.079C123.888 100.079 123.777 102.391 123.311 102.66C122.846 102.929 117.566 103.557 117.566 103.557C117.566 103.557 116.371 100.423 115.741 99.6866C115.741 99.6866 115.79 100.286 115.811 100.747C115.832 101.208 116.051 101.738 115.2 102.798C114.349 103.858 111.52 107.124 111.363 108.514C111.297 109.109 111.27 109.708 111.283 110.307C111.222 109.487 111.061 108.159 110.628 107.619C109.983 106.813 107.453 104.44 107.466 102.076C107.466 102.076 104.486 106.947 103.931 110.168C103.513 112.587 104.917 117.501 104.513 122.064C114.16 126.546 130.008 123.368 133.882 122.488C132.771 121.171 131.347 119.021 131.007 116.309C130.429 111.697 130.986 107.222 129.897 104.427Z" fill="black"/>
<path d="M110.795 108.267C110.753 108.058 108.939 104.46 108.94 104.128C108.927 103.917 108.918 103.71 108.919 103.512C108.919 103.512 105.94 108.382 105.384 111.603C104.969 114.013 106.211 118.327 105.748 122.586C106.918 123.025 108.12 123.374 109.344 123.628C110.233 118.836 107.329 115.628 107.108 113.096C106.778 109.333 110.795 108.267 110.795 108.267Z" fill="#141414"/>
<path d="M111.074 125.041C111.074 125.041 114.018 129.486 117.791 129.643C122.336 129.838 122.658 126.088 122.658 126.088L122.991 117.643L123.119 113.136L112.172 111.451L111.074 125.041Z" fill="#F5B0A6"/>
<path d="M122.694 125.518L122.997 117.648L114.317 118.314L122.694 125.518Z" fill="#F18A8B"/>
<path d="M129.864 108.333L129.725 104.07C129.604 100.514 126.441 97.7778 122.657 97.9367L112.779 98.3644L113.389 116.726C113.41 117.134 113.554 117.527 113.803 117.852C114.052 118.176 114.394 118.417 114.783 118.543L122.955 121.357C123.301 121.473 123.669 121.506 124.029 121.454C124.39 121.401 124.733 121.264 125.03 121.053L129.265 118.004C129.538 117.815 129.76 117.561 129.911 117.265C130.062 116.969 130.138 116.64 130.132 116.308L130.109 115.677L129.864 108.333Z" fill="#F5B0A6"/>
<path d="M127.222 111.77C127.111 113.593 128.344 115.179 130.111 115.676L129.867 108.332C128.393 108.881 127.317 110.194 127.222 111.77Z" fill="#F18A8B"/>
<path d="M125.567 105.534C125.545 105.465 125.496 105.406 125.431 105.372C125.367 105.338 125.291 105.331 125.221 105.352C125.186 105.362 125.154 105.38 125.126 105.402C125.098 105.425 125.075 105.454 125.058 105.486C125.041 105.517 125.03 105.552 125.027 105.589C125.023 105.625 125.027 105.661 125.038 105.696L127.007 112.073L124.333 113.044C124.299 113.057 124.268 113.075 124.241 113.1C124.214 113.124 124.193 113.153 124.178 113.186C124.162 113.219 124.154 113.254 124.152 113.291C124.151 113.327 124.156 113.363 124.169 113.397C124.189 113.45 124.224 113.495 124.271 113.527C124.317 113.56 124.372 113.577 124.429 113.577C124.461 113.577 124.493 113.571 124.523 113.56L127.447 112.5C127.512 112.476 127.566 112.429 127.598 112.367C127.629 112.305 127.636 112.233 127.617 112.167L125.567 105.534Z" fill="#F18A8B"/>
<path d="M111.5 108.317C109.302 108.411 107.577 110.158 107.646 112.219C107.714 114.28 109.551 115.876 111.749 115.781C113.947 115.687 115.672 113.939 115.603 111.878C115.534 109.817 113.698 108.222 111.5 108.317Z" fill="#F5B0A6"/>
<path d="M118.412 108.436C116.123 108.338 114.155 110.001 114.019 112.151C113.882 114.301 115.625 116.123 117.914 116.221C120.203 116.319 122.171 114.656 122.309 112.506C122.447 110.356 120.701 108.533 118.412 108.436Z" fill="#F18A8B"/>
<path d="M121.012 107.752C120.575 107.771 120.241 108.354 120.265 109.057C120.29 109.759 120.661 110.312 121.097 110.294C121.532 110.277 121.867 109.691 121.843 108.989C121.82 108.287 121.444 107.733 121.012 107.752ZM128.351 107.438C127.914 107.457 127.58 108.04 127.603 108.742C127.627 109.444 127.999 109.998 128.435 109.98C128.872 109.962 129.205 109.377 129.182 108.674C129.159 107.972 128.787 107.419 128.351 107.438ZM126.472 114.973C126.381 114.948 126.287 114.936 126.193 114.939C126.018 114.957 125.844 114.989 125.673 115.033C124.741 115.257 123.775 115.309 122.824 115.187C122.517 115.132 122.202 115.128 121.893 115.176C121.619 115.228 121.405 115.342 121.291 115.557C121.054 115.992 121.221 116.501 121.53 116.89C121.617 116.996 121.713 117.095 121.818 117.183C122.515 117.782 123.62 118.072 124.624 117.873C125.057 117.79 125.467 117.62 125.831 117.372C126.387 116.981 126.79 116.434 126.889 115.848C126.947 115.514 126.857 115.1 126.472 114.973Z" fill="black"/>
<path d="M125.674 115.033C124.741 115.257 123.776 115.309 122.825 115.187C122.517 115.132 122.202 115.128 121.894 115.176C121.899 115.399 121.988 115.612 122.144 115.772C122.325 115.94 122.588 115.994 122.835 116.026C123.746 116.151 124.674 116.086 125.559 115.834C125.768 115.773 125.99 115.692 126.115 115.523C126.239 115.354 126.234 115.142 126.192 114.939C126.017 114.957 125.844 114.989 125.674 115.033Z" fill="white"/>
<path d="M121.818 117.187C122.516 117.786 123.62 118.076 124.625 117.877C125.057 117.794 125.467 117.623 125.831 117.376C125.458 116.968 124.84 116.756 124.247 116.696C123.41 116.606 122.523 116.759 121.818 117.187Z" fill="#F18A8B"/>
<path d="M110.237 111.147L112.575 113.236L112.839 112.943L110.501 110.854L110.237 111.147Z" fill="#F18A8B"/>
<path d="M110.399 112.856L110.672 113.139L111.674 112.187L111.401 111.903L110.399 112.856Z" fill="#F18A8B"/>
<path d="M113.5 101.606C112.138 103.856 112.782 108.347 112.889 108.594C112.996 108.842 113.199 106.066 113.199 106.066C116.282 103.321 115.957 99.8433 115.957 99.8433C115.957 99.8433 114.862 99.3555 113.5 101.606Z" fill="#616161"/>
<path d="M107.183 111.019C107.183 111.038 107.183 111.051 107.177 111.061L107.183 111.019Z" fill="#1A1A1A"/>
<path d="M132.46 106.15C132.46 106.15 131.538 90.51 118.886 90.9544C106.233 91.3989 103.672 97.1366 101.641 101.968C100.241 105.301 100.916 114.182 101.385 120.14C102.777 121.269 104.426 122.127 106.235 122.764C107.217 118.282 106.745 113.564 107.173 111.079C108.922 108.289 110.336 107.819 110.98 108.624C111.625 109.43 113.033 110.58 113.033 110.58C113.014 109.837 113.051 109.095 113.145 108.358C113.302 106.968 113.138 104.413 113.989 103.358C114.84 102.302 115.832 101.211 115.811 100.75C115.79 100.289 115.741 99.69 115.741 99.69C116.371 100.427 116.219 105.073 116.219 105.073C116.219 105.073 122.729 104.493 123.19 104.226C123.651 103.958 123.888 100.082 123.888 100.082C123.888 100.082 124.203 103.466 124.38 104.147C124.557 104.828 129.469 105.122 129.469 105.122L129.833 105.194C130.922 107.99 130.43 111.7 131.007 116.312C131.347 119.024 132.768 121.174 133.882 122.491C134.257 122.406 134.518 122.342 134.652 122.309C134.438 121.766 134.15 121.041 133.763 120.072C132.239 116.213 132.46 106.15 132.46 106.15ZM107.177 111.061C107.177 111.051 107.177 111.038 107.183 111.019L107.177 111.061ZM107.201 110.916C107.217 110.829 107.23 110.748 107.243 110.671C107.228 110.764 107.213 110.849 107.201 110.916ZM107.263 110.559C107.263 110.547 107.263 110.534 107.263 110.522C107.267 110.534 107.266 110.547 107.263 110.556V110.559ZM107.303 110.326C107.312 110.27 107.322 110.214 107.331 110.162C107.322 110.212 107.313 110.267 107.303 110.326ZM107.333 110.149L107.36 109.996C107.351 110.044 107.342 110.096 107.333 110.149ZM107.4 109.766C107.423 109.628 107.429 109.593 107.4 109.766V109.766Z" fill="#1A1A1A"/>
<path d="M107.333 110.162C107.325 110.216 107.315 110.273 107.306 110.326C107.313 110.267 107.322 110.212 107.333 110.162Z" fill="#1A1A1A"/>
<path d="M113.444 99.4511C113.463 99.4812 113.481 99.5124 113.497 99.5444C113.545 99.3444 113.444 99.4511 113.444 99.4511ZM112.415 101.977C110.933 104.983 110.949 108.568 110.949 108.568L113.152 110.778L113.025 109.622C111.462 107.026 113.04 101.956 113.48 101.052C113.6 100.819 113.664 100.561 113.667 100.299C113.671 100.037 113.612 99.7779 113.498 99.5422C113.444 99.7689 113.202 100.382 112.415 101.977ZM123.919 95.2944C128.381 96.5789 127.919 104.99 127.919 104.99L129.948 105.101C129.948 105.101 130.643 104.09 129.414 99.98C128.185 95.87 123.919 95.2944 123.919 95.2944Z" fill="#0D0D0D"/>
<path d="M113.097 110.621C114.722 109.05 115.985 100.266 115.985 100.266C115.985 100.266 113.975 102.318 113.134 104.144C112.293 105.971 113.097 110.621 113.097 110.621Z" fill="#1A1A1A"/>
<path d="M118.17 105.128C118.571 105.818 121.301 105.034 121.073 104.334C120.693 103.173 117.533 104.033 118.17 105.128ZM126.951 104.276C126.817 105.001 129.624 105.387 129.931 104.646C130.418 103.471 127.173 103.07 126.951 104.276Z" fill="black"/>
<path d="M111.863 85.2344C108.482 84.1456 104.834 85.9256 103.713 89.21C102.592 92.4944 104.425 96.04 107.805 97.1289C111.185 98.2178 114.834 96.4378 115.954 93.1533C117.074 89.8689 115.243 86.3233 111.863 85.2344Z" fill="#1A1A1A"/>
<path d="M107.132 88.9644C106.152 90.2211 104.884 91.224 103.436 91.8889C103.484 92.3044 103.575 92.7139 103.707 93.1111C105.225 92.4475 106.553 91.4165 107.573 90.1111C108.717 88.6134 109.395 86.8124 109.523 84.9322C109.32 84.9411 109.118 84.9633 108.917 84.9922C108.635 86.436 108.025 87.7954 107.132 88.9644Z" fill="#0D0D0D"/>
<path d="M105.308 95.49L105.655 95.6255L116.1 91.1589C116.1 91.1589 108.163 91.7678 105.308 95.49Z" fill="black"/>
<path d="M74.0576 146.139L96.1421 214.576H125.241H138.334L116.954 146.139H74.0576Z" fill="#3D5891"/>
<path d="M82.0923 296.3H85.059L98.4667 220.493L91.4523 219.95L82.0923 296.3Z" fill="#12203A"/>
<path d="M125.024 220.493L138.432 296.3H141.399L132.039 219.95L125.024 220.493Z" fill="#12203A"/>
<path d="M158.08 220.493L171.488 296.3H174.455L165.093 219.95L158.08 220.493Z" fill="#12203A"/>
<path d="M138.333 214.576H125.241L127.883 225.396C128.14 226.446 129.106 227.188 129.301 227.188H170.445L166.501 214.576H138.333Z" fill="#3D5891"/>
<path d="M96.1423 214.576L74.0579 146.139L70.5557 145.94L85.6912 225.396C85.8238 225.912 86.1257 226.369 86.5487 226.694C86.9716 227.019 87.4913 227.193 88.0245 227.188H136.593L133.577 214.576H96.1423Z" fill="#5681BF"/>
<path d="M339.653 213.229H352.747H381.844L403.929 144.791H361.032L339.653 213.229Z" fill="#3D5891"/>
<path d="M379.521 219.254L392.929 295.061H395.894L386.534 218.71L379.521 219.254Z" fill="#12203A"/>
<path d="M336.589 295.061H339.556L352.963 219.254L345.949 218.71L336.589 295.061Z" fill="#12203A"/>
<path d="M303.533 295.061H306.5L319.908 219.254L312.893 218.71L303.533 295.061Z" fill="black"/>
<path d="M311.49 213.229L307.547 225.84H348.686C348.882 225.84 349.848 225.099 350.105 224.049L352.747 213.229H311.49Z" fill="black"/>
<path d="M381.845 213.229H344.41L341.395 225.84H389.963C390.497 225.845 391.016 225.672 391.439 225.347C391.862 225.022 392.164 224.565 392.297 224.049L407.432 144.592L403.929 144.791L381.845 213.229Z" fill="#5681BF"/>
<path d="M139.296 183.564L112.119 183.148L104.031 204.778C104.031 204.778 112.723 214.099 136.19 214.414C146.183 214.548 178.06 210.92 198.301 211.483L193.301 185.746L139.296 183.564Z" fill="#1C4284"/>
<path d="M170.76 268.2L160.619 260.806C156.586 265.273 149.83 275.011 149.83 275.011L151.985 276.134L156.562 273.083L161.271 280.878L179.238 290.254C180.712 287.588 170.099 278.81 170.16 277.283C170.221 275.757 170.76 268.2 170.76 268.2ZM211.111 280.921C210.027 279.838 204.828 274.31 204.828 274.31L192.462 276.322C193.006 282.174 195.573 293.513 195.573 293.513L197.871 292.781L198.745 287.516L207.699 289.556L226.859 283.451C225.901 280.606 212.198 282.006 211.111 280.921Z" fill="#243354"/>
<path d="M151.867 261.61L178.357 270.367L207.903 201.212L181.3 197.394L151.867 261.61Z" fill="#1C4284"/>
<path d="M194.72 211.603C202.089 211.603 208.063 205.799 208.063 198.639C208.063 191.479 202.089 185.674 194.72 185.674C187.35 185.674 181.376 191.479 181.376 198.639C181.376 205.799 187.35 211.603 194.72 211.603Z" fill="#1C4284"/>
<path d="M123.281 181.333L101.896 188.144C101.896 188.144 99.5298 199.183 103.891 207.922C110.805 221.771 166.983 212.144 186.78 216.301L192.415 190.958L139.304 183.566L123.281 181.333Z" fill="#2C4DA2"/>
<path d="M192.411 190.957C185.209 189.444 178.111 193.889 176.555 200.889C175 207.889 179.577 214.787 186.778 216.298C193.979 217.809 201.081 213.363 202.638 206.364C204.194 199.366 199.614 192.469 192.411 190.957Z" fill="#515151"/>
<path d="M176.374 205.386L184.47 278.787L211.299 272.724L202.814 201.872L176.374 205.386Z" fill="#2C4DA2"/>
<path d="M187.786 190.784C180.485 191.754 175.376 198.291 176.374 205.386C177.371 212.48 184.1 217.443 191.401 216.473C198.702 215.503 203.812 208.966 202.814 201.872C201.815 194.779 195.087 189.813 187.786 190.784Z" fill="#2C4DA2"/>
<path d="M123.919 131C119.612 133.173 117.934 138.333 120.171 142.511C122.408 146.689 127.712 148.327 132.019 146.153C136.325 143.98 138.003 138.827 135.767 134.642C133.53 130.458 128.222 128.828 123.919 131Z" fill="#F3F3F3"/>
<path d="M142.367 163.511C138.06 165.684 136.381 170.838 138.618 175.022C140.855 179.207 146.159 180.838 150.466 178.664C154.772 176.491 156.451 171.338 154.215 167.153C151.978 162.969 146.674 161.333 142.367 163.511Z" fill="#F5B0A6"/>
<path d="M120.171 142.511L138.461 176.731L154.058 168.862L135.766 134.642L120.171 142.511Z" fill="#F3F3F3"/>
<path d="M120.171 142.511L138.461 176.731L154.058 168.862L135.766 134.642L120.171 142.511Z" fill="#F5B0A6"/>
<path d="M119.424 140.574L126.881 166.247L147.52 156.632L135.767 134.642L119.424 140.574Z" fill="#EF7C59"/>
<path d="M123.919 131C119.612 133.173 117.934 138.333 120.171 142.511C122.408 146.689 127.712 148.327 132.019 146.153C136.325 143.98 138.003 138.827 135.767 134.642C133.53 130.458 128.222 128.828 123.919 131Z" fill="#EF7C59"/>
<path d="M142.702 162.362L154.609 173.548L164.634 140.352L156.88 136.313L142.702 162.362Z" fill="#F5B0A6"/>
<path d="M128.061 130.04H102.142L96.8802 169C96.4824 171.951 98.8458 174.569 101.909 174.569H139.296C142.068 174.569 143.991 171.886 143.03 169.36L128.061 130.04Z" fill="#F3CE90"/>
<path d="M101.909 183.563L141.508 183.564V174.297H101.909V183.563Z" fill="#F3CE90"/>
<path d="M97.0001 168.179C92.2157 167.394 87.6812 170.526 86.8723 175.179C86.0634 179.832 89.2879 184.233 94.0734 185.019C98.859 185.804 103.392 182.672 104.201 178.019C105.01 173.366 101.778 168.964 97.0001 168.179Z" fill="#BABABA"/>
<path d="M97.0001 168.179C92.2157 167.394 87.6812 170.526 86.8723 175.179C86.0634 179.832 89.2879 184.233 94.0734 185.019C98.859 185.804 103.392 182.672 104.201 178.019C105.01 173.366 101.778 168.964 97.0001 168.179Z" fill="#BABABA"/>
<path d="M86.8667 175.176L103.38 177.328L105.26 164.044L89.3234 161.049L86.8667 175.176Z" fill="#F5B0A6"/>
<path d="M84.1211 160.029L106.558 164.431L107.923 140.198L94.0822 135.172L84.1211 160.029Z" fill="#EF7C59"/>
<path d="M103.606 130.159C98.8202 129.373 94.2858 132.506 93.478 137.159C92.6702 141.812 95.8936 146.214 100.678 147C105.462 147.786 107.194 146.171 108.001 141.522C108.809 136.873 108.39 130.944 103.606 130.159Z" fill="#EF7C59"/>
<path d="M90.1187 183.323L122.258 202.962L130.019 194.899L100.482 171.114L90.1187 183.323Z" fill="#F5B0A6"/>
<path d="M100.944 169.872C97.1213 166.968 91.5991 167.624 88.6102 171.339C85.6213 175.053 86.2968 180.419 90.1202 183.323C93.9435 186.228 99.4646 185.571 102.454 181.857C105.442 178.142 104.767 172.778 100.944 169.872Z" fill="#F5B0A6"/>
<path d="M118.493 129.442L110.783 123.936L108.87 130.04L115.91 134.769L118.77 130.568L122.729 134.083L124.462 130.04L122.716 125.152L118.493 129.442Z" fill="white"/>
<path d="M128.111 293.977H131.369L147.806 171.7L141.022 170.653L128.111 293.977Z" fill="#7A2F22"/>
<path d="M243.289 117.149H181.378C180.935 117.161 180.51 117.326 180.175 117.615C179.839 117.904 179.613 118.3 179.535 118.736L173.475 158.28C173.453 158.43 173.463 158.583 173.506 158.729C173.548 158.875 173.621 159.01 173.721 159.125C173.82 159.239 173.943 159.331 174.082 159.394C174.22 159.457 174.37 159.489 174.522 159.488H237.034C237.413 159.489 237.779 159.355 238.067 159.109C238.355 158.864 238.546 158.523 238.604 158.149L244.645 118.736C244.778 117.859 244.172 117.149 243.289 117.149Z" fill="#3D5891"/>
<path opacity="0.43" d="M199.109 159.528H203.831L200.446 152.316L199.109 159.528Z" fill="#243354"/>
<path d="M215.935 152.316H200.444L204.709 167.649H218.111C218.354 167.65 218.595 167.595 218.813 167.488C219.032 167.381 219.223 167.225 219.371 167.032C219.52 166.839 219.621 166.614 219.668 166.376C219.715 166.137 219.706 165.89 219.642 165.656L215.935 152.316Z" fill="#243354"/>
<path d="M207.484 166.363H194.48V167.652H207.484V166.363Z" fill="#243354"/>
<path d="M273.292 265.32L274.638 274.577L276.578 279.149L284.599 275.958L284.201 266.628L273.292 265.32Z" fill="#F5B0A6"/>
<path d="M298.327 289.732L301.682 293.36L307.581 290.322L309.098 272.304H297.051L298.327 289.732Z" fill="#F5B0A6"/>
<path d="M325.524 187.403C322.777 191.444 272.322 196.483 268.302 209.569C263.149 226.362 270.839 266.723 270.839 266.723H287.535L291.758 221.116C291.758 221.116 344.808 223.227 356.148 201.242C357.715 198.201 360.274 180.812 360.897 177.431H330.073C329.2 183.647 327.502 184.494 325.524 187.403Z" fill="#1C4284"/>
<path d="M342.703 177.431C342.703 184.551 340.925 191.557 340.925 191.557C340.925 191.557 296.422 213.802 295.154 224.387C292.71 244.774 295.154 280.58 295.154 280.58L311.218 281.349L317.773 233.817C317.773 233.817 378.422 222.078 378.422 197.444C378.422 191.479 376.695 183.588 375.041 177.43L342.703 177.431Z" fill="#2C4DA2"/>
<path d="M298.909 277.666L294.416 277.487L294.646 284.259L299.354 284.443L308.703 284.808L312.133 284.942L312.607 278.212L309.658 278.096L298.909 277.666Z" fill="#6586D1"/>
<path d="M270.315 269.829L288.491 269.758L288.659 262.729L269.322 262.449L270.315 269.829Z" fill="#6586D1"/>
<path d="M115.354 92.4044C110.577 94.3933 107.91 100.567 109.107 105.783C109.674 105.774 110.979 106.046 111.527 105.936C111.614 101.534 112.794 96.8144 116.262 94.1756C117.182 93.4767 121.303 92.4533 122.302 92.0956C121.33 91.8011 119.191 91.7789 118.191 91.6167C118.014 91.6811 115.529 92.3333 115.354 92.4044Z" fill="#EF7C59"/>
<path d="M109.707 115.32C112.288 115.32 114.38 113.132 114.38 110.433C114.38 107.735 112.288 105.547 109.707 105.547C107.126 105.547 105.033 107.735 105.033 110.433C105.033 113.132 107.126 115.32 109.707 115.32Z" fill="#EF7C59"/>
<path d="M117.278 118.542C116.572 118.595 115.865 118.461 115.228 118.154C114.59 117.847 114.045 117.379 113.646 116.794L112.104 114.597L111.718 114.848L113.273 117.048C113.636 117.577 114.107 118.022 114.656 118.353C115.205 118.685 115.819 118.895 116.456 118.97C116.738 119.002 117.024 119.008 117.308 118.986L124.712 118.416L124.678 117.971L117.278 118.542Z" fill="#93493A"/>
<path d="M125.603 117.929C125.598 117.827 125.572 117.727 125.527 117.635C125.482 117.543 125.419 117.461 125.342 117.394C125.265 117.326 125.176 117.275 125.078 117.243C124.981 117.211 124.879 117.199 124.777 117.207L123.6 117.318C123.393 117.343 123.204 117.448 123.073 117.611C122.942 117.774 122.88 117.981 122.899 118.189V118.223C122.905 118.325 122.931 118.425 122.975 118.517C123.02 118.609 123.083 118.691 123.16 118.759C123.237 118.826 123.327 118.877 123.424 118.909C123.521 118.941 123.624 118.954 123.726 118.946L124.902 118.834C125.11 118.809 125.299 118.704 125.43 118.541C125.561 118.379 125.623 118.171 125.603 117.963V117.929Z" fill="#93493A"/>
<path d="M109.706 113.646C111.403 113.646 112.779 112.207 112.779 110.433C112.779 108.659 111.403 107.221 109.706 107.221C108.01 107.221 106.634 108.659 106.634 110.433C106.634 112.207 108.01 113.646 109.706 113.646Z" fill="#93493A"/>
<path d="M357.257 110.481L333.111 111.022C333.111 111.022 319.745 113.911 318.32 123.263C316.894 132.616 311.431 152.316 311.431 152.316L299.464 156.133C299.464 156.133 306.968 158.549 308.822 166.812L326.267 166.564L326.552 168.461L378.885 168.597C378.885 168.597 384.81 172.263 380.674 140.974C376.539 109.686 364.862 110.481 357.257 110.481Z" fill="#6FC183"/>
<path d="M361.843 156.676C361.843 156.676 353.92 156.133 350.096 161.146C350.096 161.146 354.603 159.52 355.56 162.771C356.517 166.022 355.697 168.327 355.697 168.327H366.761C366.761 168.327 369.357 161.823 361.843 156.676Z" fill="white"/>
<path d="M361.843 156.676L362.253 135.136L358.667 156.743C358.667 156.743 361.422 156.141 361.843 156.676Z" fill="#59B56D"/>
<path d="M328.376 160.603L329.059 134.323L323.334 161.792L328.376 160.603Z" fill="#59B56D"/>
<path d="M353.783 161.01C350.369 159.788 350.095 161.146 350.095 161.146C350.095 161.146 345.451 162.907 344.084 163.178C342.718 163.449 333.156 160.603 330.973 160.468C328.79 160.332 318.542 163.042 318.542 163.042C318.542 163.042 314.854 165.346 316.764 165.48C318.674 165.614 335.209 166.429 335.209 166.429L335.163 168.28L355.7 168.326C355.7 168.326 357.199 162.229 353.783 161.01Z" fill="#F5B0A6"/>
<path d="M322.459 164.833L322.818 165.586L330.331 162.063L329.972 161.311L322.459 164.833Z" fill="#F18A8B"/>
<path d="M318.741 165.254L319.158 165.978C319.965 165.52 324.01 163.219 324.438 162.794L323.845 162.206C323.566 162.472 320.693 164.149 318.741 165.254Z" fill="#F18A8B"/>
<path d="M332.625 90.2167L334.369 91.2044L334.612 90.8244L332.869 89.8367L332.625 90.2167Z" fill="black"/>
<path d="M339.222 97.37L338.278 111.448C338.278 111.448 340.159 113.036 344.645 113.51C348.417 113.909 352.072 110.481 352.072 110.481L351.313 96.2455L339.222 97.37Z" fill="#F5B0A6"/>
<path d="M338.282 111.444C338.282 111.444 342.674 109.829 344.12 108.746C346.453 106.997 349.324 102.832 349.324 102.832L338.412 106.679L338.282 111.444Z" fill="#F18A8B"/>
<path d="M330.556 101.127C330.545 101.494 330.627 101.858 330.792 102.186C330.957 102.514 331.202 102.796 331.503 103.006L336.197 106.347C336.526 106.58 336.906 106.73 337.306 106.784C337.706 106.839 338.113 106.796 338.492 106.66L347.574 103.438C348.008 103.293 348.389 103.021 348.666 102.657C348.943 102.293 349.105 101.855 349.13 101.398L349.739 85.0711L331.177 84.4578L330.556 101.127Z" fill="#F5B0A6"/>
<path d="M330.854 93.26L330.624 99.42C332.549 99.4844 334.164 98.1567 334.227 96.4555C334.29 94.7544 332.778 93.3244 330.854 93.26ZM337.857 96.1233L335.451 96.0444L336.457 89.2244C336.466 89.1581 336.449 89.0907 336.409 89.0371C336.369 88.9834 336.309 88.9479 336.243 88.9383C336.177 88.9287 336.109 88.9459 336.056 88.986C336.002 89.0261 335.966 89.0859 335.957 89.1522L334.91 96.2489C334.905 96.2838 334.908 96.3194 334.917 96.3533C334.927 96.3872 334.944 96.4187 334.967 96.4455C334.99 96.4726 335.018 96.4945 335.05 96.5098C335.082 96.5251 335.117 96.5335 335.152 96.5344L337.84 96.6233H337.849C337.915 96.6244 337.979 96.599 338.027 96.5529C338.075 96.5067 338.102 96.4435 338.103 96.3772C338.104 96.3109 338.079 96.2469 338.032 96.1993C337.986 96.1517 337.923 96.1244 337.857 96.1233Z" fill="#F18A8B"/>
<path d="M352.528 100.389C354.968 100.389 356.945 98.5284 356.945 96.2333C356.945 93.9383 354.968 92.0778 352.528 92.0778C350.088 92.0778 348.11 93.9383 348.11 96.2333C348.11 98.5284 350.088 100.389 352.528 100.389Z" fill="#F5B0A6"/>
<path d="M341.778 87.5056C341.76 88.4622 345.098 89.1967 345.301 88.33C345.643 86.8889 341.809 85.9911 341.778 87.5056ZM329.976 87.6422C330.412 88.42 333.451 87.62 333.206 86.8356C332.798 85.5344 329.282 86.41 329.976 87.6422Z" fill="black"/>
<path d="M344.537 93.0889C342.609 93.0256 340.992 94.4433 340.925 96.2567C340.857 98.07 342.369 99.59 344.291 99.6545C346.213 99.7189 347.836 98.3 347.903 96.4867C347.971 94.6733 346.463 93.1533 344.537 93.0889Z" fill="#F18A8B"/>
<path d="M340.968 90.3989C340.558 90.3989 340.218 90.9278 340.21 91.5911C340.202 92.2544 340.528 92.7944 340.938 92.7989C341.348 92.8033 341.688 92.27 341.696 91.6078C341.703 90.9455 341.378 90.4044 340.968 90.3989ZM333.431 90.1511C333.021 90.1455 332.681 90.6789 332.673 91.3422C332.666 92.0056 332.99 92.5456 333.401 92.55C333.812 92.5544 334.15 92.0211 334.159 91.3589C334.168 90.6967 333.841 90.1555 333.431 90.1511Z" fill="black"/>
<path d="M353.69 93.8266C353.621 93.8266 352.005 93.9977 351.147 95.0366C350.947 95.281 350.799 95.564 350.713 95.868C350.628 96.1719 350.605 96.4903 350.648 96.8032C350.721 97.5166 350.939 98.111 351.295 98.571C351.336 98.6236 351.396 98.6579 351.462 98.6667C351.529 98.6754 351.596 98.6578 351.649 98.6177C351.675 98.5977 351.697 98.5728 351.714 98.5444C351.73 98.5159 351.741 98.4844 351.745 98.4518C351.75 98.4192 351.748 98.3861 351.739 98.3543C351.731 98.3225 351.716 98.2927 351.696 98.2666C351.398 97.881 351.215 97.371 351.15 96.7521C351.115 96.5053 351.132 96.254 351.198 96.0138C351.264 95.7735 351.379 95.5495 351.536 95.3555C352.259 94.4788 353.724 94.3255 353.738 94.3244C353.771 94.3212 353.802 94.3117 353.831 94.2963C353.86 94.2809 353.886 94.2599 353.907 94.2346C353.928 94.2092 353.944 94.18 353.953 94.1486C353.963 94.1172 353.966 94.0843 353.963 94.0516C353.96 94.0189 353.95 93.9872 353.935 93.9582C353.92 93.9292 353.899 93.9035 353.873 93.8826C353.848 93.8617 353.819 93.846 353.787 93.8364C353.756 93.8268 353.723 93.8234 353.69 93.8266Z" fill="#5681BF"/>
<path d="M353.495 96.0833C352.94 95.7178 351.648 95.3611 350.697 96.6278C350.677 96.654 350.662 96.684 350.654 96.7158C350.646 96.7477 350.644 96.7809 350.649 96.8134C350.654 96.846 350.665 96.8772 350.682 96.9055C350.699 96.9337 350.721 96.9582 350.748 96.9778C350.791 97.0102 350.844 97.0277 350.899 97.0278C350.938 97.0279 350.977 97.0188 351.012 97.0013C351.047 96.9837 351.078 96.9581 351.101 96.9267C352.001 95.7289 353.165 96.4678 353.212 96.5C353.268 96.5365 353.336 96.5497 353.401 96.5366C353.466 96.5235 353.524 96.4852 353.561 96.43C353.58 96.403 353.593 96.3726 353.6 96.3405C353.606 96.3083 353.607 96.2752 353.601 96.2429C353.595 96.2107 353.582 96.18 353.564 96.1526C353.546 96.1252 353.523 96.1016 353.495 96.0833Z" fill="#5681BF"/>
<path d="M339.817 99.3889C339.465 99.3373 339.107 99.3437 338.758 99.4078C337.679 99.554 336.582 99.502 335.522 99.2544C335.328 99.2044 335.13 99.1695 334.931 99.15C334.824 99.148 334.717 99.1619 334.613 99.1911C334.175 99.3389 334.07 99.8111 334.132 100.191C334.243 100.858 334.688 101.479 335.32 101.92C335.732 102.2 336.197 102.392 336.687 102.482C337.827 102.697 339.085 102.364 339.884 101.677C340.005 101.576 340.116 101.464 340.218 101.343C340.572 100.893 340.765 100.313 340.501 99.8189C340.369 99.5756 340.128 99.4444 339.817 99.3889Z" fill="black"/>
<path d="M338.758 99.4078C337.679 99.554 336.582 99.502 335.522 99.2544C335.328 99.2044 335.13 99.1695 334.931 99.15C334.883 99.3822 334.874 99.6244 335.014 99.8167C335.154 100.009 335.407 100.099 335.644 100.167C336.651 100.448 337.706 100.515 338.74 100.364C339.024 100.329 339.32 100.263 339.528 100.071C339.706 99.888 339.809 99.6451 339.817 99.39C339.465 99.3381 339.107 99.3441 338.758 99.4078Z" fill="white"/>
<path d="M337.128 101.138C336.452 101.211 335.749 101.456 335.32 101.923C335.731 102.203 336.197 102.395 336.686 102.486C337.826 102.7 339.085 102.368 339.884 101.68C339.085 101.198 338.08 101.03 337.128 101.138Z" fill="#F18A8B"/>
<path d="M353.48 74.7089C353.48 74.7089 354.258 72.1167 349.347 69.2989C349.347 69.2989 352.569 72.1211 351.318 74.42C351.318 74.42 348.031 69.0078 339.561 70.7722C339.561 70.7722 334.805 71.9722 333.087 75.6611C333.087 75.6611 332.958 76.3622 331.075 76.0944C329.193 75.8267 329.231 75.3767 329.231 75.3767C329.231 75.3767 328.489 78.3589 332.342 79.5478C332.342 79.5478 327.307 79.8867 325.061 76.3611C325.061 76.3611 322.191 84.5489 328.69 86.1278C335.189 87.7067 347.26 84.2033 348.725 82.6967C348.725 82.6967 346.668 92.1944 349.478 93.1778C349.478 93.1778 351.579 91.2689 354.61 92.4889C354.61 92.4889 356.234 93.5 356.637 94.6933C356.637 94.6933 361.109 88.9744 359.363 81.1567C357.618 73.3389 353.48 74.7089 353.48 74.7089Z" fill="black"/>
<path d="M349.029 82.3933C346.264 90.6522 349.35 93.1545 349.35 93.1545C349.53 92.6945 352.33 91.9133 352.33 91.9133C351.839 91.0367 351.126 89.32 351.126 89.32C350.333 87.2356 349.029 82.3933 349.029 82.3933ZM332.339 79.5445C327.549 80.3111 325.058 76.3578 325.058 76.3578C325.635 78.4467 327.835 79.6433 327.835 79.6433C335.531 83.7867 339.508 79.5145 339.508 79.5145C336.543 80.7167 332.339 79.5445 332.339 79.5445Z" fill="black"/>
<path d="M348.333 85.0278C348.316 84.9167 349.065 81.6144 349.065 81.6144L337.35 86.1322C337.35 86.1322 348.462 85.8067 348.333 85.0278Z" fill="black"/>
<path d="M338.257 110.889L336.845 111.024C336.845 111.024 334.932 115.767 340.898 116.669C346.863 117.571 353.238 114.502 353.647 110.669L351.869 110.353C351.869 110.353 341.626 112.964 338.257 110.889Z" fill="#F5B0A6"/>
<path d="M348.092 115.944C348.092 115.944 341.08 117.931 338.348 115.583C335.616 113.236 338.075 110.707 338.075 110.707C336.799 110.164 334.159 111.158 334.159 111.158C334.159 111.158 331.245 119.286 342.537 120.55C353.829 121.814 357.017 110.55 357.017 110.55L353.375 110.504C353.556 114.026 348.092 115.944 348.092 115.944Z" fill="white"/>
<path d="M243.21 144.196L245.012 144.501L246.356 136.713L244.553 136.407L243.21 144.196Z" fill="#93493A"/>
<path d="M241.733 153.613L243.248 153.87L244.868 144.477L243.354 144.22L241.733 153.613Z" fill="#F3CE90"/>
<path d="M235.427 137.112L236.722 144.909L238.527 144.614L237.231 136.818L235.427 137.112Z" fill="#93493A"/>
<path d="M236.867 144.886L238.429 154.288L239.944 154.041L238.382 144.638L236.867 144.886Z" fill="#F3CE90"/>
<path d="M239.366 135.874L239.865 143.76L241.753 143.642L241.253 135.757L239.366 135.874Z" fill="#93493A"/>
<path d="M240.017 143.751L240.619 153.261L242.204 153.162L241.602 143.652L240.017 143.751Z" fill="#F3CE90"/>
<path d="M246.37 146.246H235.201C235.017 146.245 234.839 146.318 234.708 146.448C234.577 146.578 234.503 146.754 234.502 146.939V166.606C234.503 166.79 234.577 166.967 234.708 167.097C234.839 167.227 235.017 167.299 235.201 167.299H246.37C246.555 167.299 246.732 167.227 246.863 167.097C246.994 166.967 247.068 166.79 247.069 166.606V146.939C247.068 146.754 246.994 146.578 246.863 146.448C246.732 146.318 246.555 146.245 246.37 146.246Z" fill="#F3CE90"/>
<path d="M246.37 146.246H235.201C234.816 146.246 234.502 146.319 234.502 146.409V151.027C234.502 151.117 234.816 151.19 235.201 151.19H246.37C246.756 151.19 247.069 151.117 247.069 151.027V146.409C247.069 146.319 246.756 146.246 246.37 146.246Z" fill="#EF7C59"/>
<path d="M299.461 156.133L298.641 156.179L303.149 167.151L309.297 166.609C309.297 166.609 308.34 158.527 299.461 156.133Z" fill="white"/>
<path d="M303.081 166.046L286.822 128.956C286.117 127.243 284.346 126.103 282.36 126.083L250.813 125.77C248.888 125.751 247.564 127.548 248.296 129.193L265.924 168.822L335.159 168.307L335.09 165.708L303.081 166.046Z" fill="#243354"/>
<path d="M273.339 143.783C272.441 144.176 272.441 146.131 273.339 148.151C274.237 150.171 275.691 151.49 276.589 151.098C277.487 150.706 277.486 148.75 276.589 146.731C275.692 144.712 274.236 143.391 273.339 143.783Z" fill="white"/>
<path d="M328.808 172.472C328.808 172.472 327.789 181.566 327.789 182.463C327.789 183.361 376.807 183.474 376.807 183.474L374.656 172.697L328.808 172.472Z" fill="#59B56D"/>
<path d="M266.078 280.102C263.568 281.701 260.756 283.168 258.128 284.39C260.558 285.073 265.516 284.693 269.827 283.18C269.612 282.882 269.38 282.596 269.133 282.324C268.272 281.389 267.233 280.634 266.078 280.102Z" fill="white"/>
<path d="M275.363 274.61C275.363 274.61 274.702 271.333 272.491 274.043C272.491 274.043 269.824 277.73 267.461 279.03C265.098 280.33 258.146 284.279 258.146 284.279C258.146 284.279 264.004 285.897 269.9 283.168L287.065 280.072L285.044 274.583C285.044 274.583 276.398 276.111 275.363 274.61Z" fill="#243354"/>
<path d="M269.9 283.173C264.292 285.763 258.731 284.429 258.2 284.292L257.783 284.379L258.07 287.074L288.392 283.161L287.065 280.078L269.9 283.173Z" fill="#12203A"/>
<path d="M265.719 279.987L257.805 284.283C260.875 284.95 262.821 284.998 265.7 284.505C268.579 284.013 269.9 283.172 269.9 283.172C267.882 280.349 265.719 279.987 265.719 279.987ZM273.358 278.045C273.215 277.97 273.061 277.91 272.914 277.844L272.047 277.461C271.46 277.201 270.866 276.957 270.275 276.707C269.997 276.589 269.83 277.003 270.097 277.133C270.667 277.41 271.234 277.689 271.807 277.958L272.64 278.344C272.894 278.462 273.261 278.727 273.539 278.574C273.575 278.559 273.605 278.533 273.625 278.5C273.645 278.466 273.654 278.427 273.65 278.389C273.635 278.311 273.6 278.239 273.549 278.179C273.498 278.119 273.432 278.073 273.358 278.045ZM274.468 276.582C274.325 276.507 274.17 276.447 274.024 276.381L273.156 275.998C272.569 275.738 271.976 275.492 271.385 275.242C271.107 275.131 270.94 275.54 271.207 275.67C271.776 275.947 272.344 276.225 272.917 276.494L273.749 276.881C274.002 276.999 274.37 277.263 274.649 277.11C274.685 277.095 274.715 277.069 274.735 277.035C274.755 277.002 274.764 276.963 274.76 276.924C274.744 276.847 274.709 276.775 274.658 276.716C274.607 276.656 274.542 276.61 274.468 276.582ZM271.517 280.089C271.101 279.773 270.687 279.457 270.274 279.141C269.809 278.788 269.34 278.441 268.867 278.101C268.828 278.073 268.779 278.061 268.731 278.068C268.683 278.075 268.64 278.1 268.61 278.138C268.58 278.176 268.566 278.224 268.571 278.273C268.576 278.321 268.599 278.365 268.636 278.397C269.4 279.095 270.182 279.771 270.969 280.449C271.158 280.613 271.39 280.881 271.668 280.743C271.719 280.715 271.759 280.672 271.783 280.62C271.807 280.567 271.813 280.508 271.801 280.452C271.778 280.282 271.644 280.185 271.517 280.089ZM293.641 298.462C292.681 297.627 291.564 296.99 290.356 296.589C288.04 298.453 285.409 300.22 282.935 301.723C285.425 302.135 290.31 301.213 294.426 299.235C294.179 298.963 293.917 298.705 293.641 298.462Z" fill="white"/>
<path d="M298.97 290.111C298.97 290.111 297.948 286.928 296.053 289.863C296.053 289.863 293.812 293.821 291.609 295.372C289.406 296.923 282.942 301.612 282.942 301.612C282.942 301.612 288.942 302.577 294.498 299.222L311.211 294.26L308.59 289.027C308.59 289.027 300.167 291.49 298.97 290.111Z" fill="#243354"/>
<path d="M294.498 299.222C289.214 302.413 283.538 301.698 282.994 301.62L282.59 301.751L283.175 304.4L312.875 297.178L311.209 294.259L294.498 299.222Z" fill="#12203A"/>
<path d="M289.987 296.513L282.6 301.653C285.727 301.987 287.667 301.812 290.473 301.012C293.28 300.212 294.498 299.221 294.498 299.221C292.177 296.636 289.987 296.513 289.987 296.513ZM297.362 293.746C297.211 293.686 297.051 293.643 296.896 293.594L295.992 293.308C295.379 293.114 294.762 292.937 294.147 292.752C293.857 292.666 293.738 293.097 294.018 293.197C294.615 293.408 295.209 293.626 295.809 293.828L296.68 294.12C296.945 294.21 297.34 294.432 297.599 294.249C297.633 294.23 297.66 294.201 297.676 294.166C297.692 294.131 297.696 294.091 297.688 294.053C297.664 293.979 297.622 293.911 297.565 293.857C297.508 293.803 297.438 293.765 297.362 293.746ZM298.301 292.169C298.15 292.109 297.99 292.067 297.836 292.018L296.931 291.732C296.319 291.538 295.701 291.36 295.086 291.177C294.797 291.09 294.677 291.521 294.957 291.621C295.553 291.832 296.149 292.05 296.749 292.252L297.619 292.544C297.885 292.634 298.28 292.857 298.539 292.674C298.573 292.655 298.6 292.626 298.616 292.591C298.631 292.555 298.635 292.516 298.627 292.478C298.603 292.403 298.561 292.335 298.504 292.281C298.447 292.227 298.377 292.188 298.301 292.169ZM295.759 295.978L294.418 295.173C293.918 294.872 293.412 294.581 292.905 294.294C292.862 294.272 292.814 294.267 292.768 294.28C292.722 294.292 292.682 294.322 292.657 294.362C292.632 294.403 292.624 294.451 292.633 294.498C292.643 294.544 292.669 294.586 292.708 294.613C293.546 295.223 294.399 295.809 295.252 296.397C295.459 296.54 295.719 296.78 295.98 296.612C296.027 296.579 296.062 296.532 296.08 296.477C296.098 296.422 296.098 296.363 296.08 296.309C296.039 296.141 295.897 296.06 295.759 295.978Z" fill="white"/>
<path d="M306.929 171.907L323.365 294.183H326.623L313.712 170.86L306.929 171.907Z" fill="#7A2F22"/>
<path d="M383.712 167.904H131.456V172.61H383.712V167.904Z" fill="#93493A"/>
<path d="M121.555 91.0244C121.555 91.0244 117.055 91.1922 114.593 92.75L115.739 94.5611C115.739 94.5611 121.938 91.1922 125.249 92.4555C125.249 92.4555 124.654 91.7189 121.555 91.0244ZM347.121 72.9689C346.923 72.8867 344.102 72.1478 343.899 72.08C342.765 72.2633 340.335 72.2889 339.232 72.6222C340.365 73.0289 345.042 74.19 346.086 74.9833C350.02 77.9767 351.36 83.3333 351.459 88.3278C352.081 88.4522 353.561 88.1455 354.206 88.1555C355.571 82.2311 352.548 75.2222 347.121 72.9689Z" fill="#EF7C59"/>
<path d="M353.53 98.9733C356.459 98.9733 358.833 96.4905 358.833 93.4278C358.833 90.365 356.459 87.8822 353.53 87.8822C350.601 87.8822 348.227 90.365 348.227 93.4278C348.227 96.4905 350.601 98.9733 353.53 98.9733Z" fill="#EF7C59"/>
<path d="M349.06 100.646C348.607 101.308 347.988 101.841 347.265 102.189C346.541 102.537 345.739 102.689 344.939 102.629L336.537 101.982L336.497 102.486L344.899 103.132C345.221 103.156 345.545 103.15 345.867 103.114C346.589 103.029 347.285 102.79 347.908 102.414C348.53 102.038 349.066 101.533 349.478 100.933L351.268 98.4267L350.769 98.2278L349.06 100.646Z" fill="#93493A"/>
<path d="M337.763 101.243L336.43 101.113C336.314 101.104 336.198 101.118 336.088 101.155C335.978 101.191 335.876 101.249 335.789 101.326C335.701 101.402 335.63 101.495 335.579 101.6C335.529 101.704 335.499 101.817 335.493 101.933V101.972C335.471 102.208 335.542 102.443 335.691 102.628C335.84 102.812 336.055 102.932 336.29 102.96L337.623 103.09C337.739 103.099 337.855 103.085 337.965 103.049C338.075 103.013 338.177 102.955 338.264 102.878C338.352 102.802 338.423 102.709 338.474 102.605C338.524 102.5 338.554 102.387 338.56 102.271V102.232C338.582 101.996 338.511 101.761 338.362 101.576C338.213 101.392 337.998 101.272 337.763 101.243Z" fill="#93493A"/>
<path d="M353.53 97.0722C355.455 97.0722 357.016 95.4405 357.016 93.4278C357.016 91.415 355.455 89.7833 353.53 89.7833C351.605 89.7833 350.044 91.415 350.044 93.4278C350.044 95.4405 351.605 97.0722 353.53 97.0722Z" fill="#93493A"/>
<path d="M338.147 71.1534C338.147 71.1534 335.09 72.3322 333.901 74.3534C333.901 74.3534 340.609 70.1434 348.166 76.9634L349.445 75.7845L349.869 74.7745C349.869 74.7745 344.09 69.8889 338.147 71.1534Z" fill="#EF7C59"/>
<path opacity="0.38" d="M213.327 106.281L213.431 99.8589L206.642 100.067L213.327 106.281Z" fill="#5681BF"/>
<path opacity="0.38" d="M219.496 58.0622H149.234C148.188 58.0622 147.341 58.9094 147.341 59.9545V98.6533C147.341 99.6984 148.188 100.546 149.234 100.546H219.496C220.541 100.546 221.388 99.6984 221.388 98.6533V59.9545C221.388 58.9094 220.541 58.0622 219.496 58.0622Z" fill="#FAB9AC"/>
<path d="M223.297 55.8644H153.034C151.989 55.8644 151.142 56.7116 151.142 57.7567V96.4556C151.142 97.5006 151.989 98.3478 153.034 98.3478H223.297C224.342 98.3478 225.189 97.5006 225.189 96.4556V57.7567C225.189 56.7116 224.342 55.8644 223.297 55.8644Z" fill="#414347"/>
<path d="M217.115 65.57H180.637C180.257 65.57 179.949 65.8779 179.949 66.2578V71.6578C179.949 72.0376 180.257 72.3456 180.637 72.3456H217.115C217.495 72.3456 217.803 72.0376 217.803 71.6578V66.2578C217.803 65.8779 217.495 65.57 217.115 65.57Z" fill="white"/>
<path d="M214.176 104.531L214.346 98.1322L206.535 97.1222L214.176 104.531Z" fill="#414347"/>
<path d="M184.096 82.4422H181.225V79.9789H180.458V85.8655H181.225V83.1056H184.096V85.8655H184.87V79.9789H184.096V82.4422Z" fill="white"/>
<path d="M186.966 83.1056H189.274V82.4767H186.966V80.6167H189.406V79.9789H186.2V85.8655H189.538V85.2278H186.966V83.1056Z" fill="white"/>
<path d="M191.299 79.9789H190.532V85.8655H193.836V85.2278H191.299V79.9789Z" fill="white"/>
<path d="M197.824 80.4244C197.472 80.11 196.918 79.9356 196.158 79.9356C195.665 79.9321 195.173 79.9693 194.687 80.0467V85.8633H195.453V83.5078C195.656 83.549 195.863 83.5665 196.07 83.56C196.818 83.56 197.479 83.3378 197.883 82.9133C198.183 82.6078 198.342 82.1889 198.342 81.6556C198.351 81.425 198.309 81.1953 198.22 80.9826C198.13 80.7699 197.995 80.5793 197.824 80.4244ZM196.089 82.9489C195.876 82.9545 195.663 82.934 195.455 82.8878V80.5989C195.693 80.5519 195.935 80.5314 196.178 80.5378C197.023 80.5378 197.578 80.9133 197.578 81.6911C197.578 82.5033 197.014 82.9489 196.089 82.9489Z" fill="white"/>
<path d="M211.483 83.94L210.363 83.5211C210.427 83.0522 210.411 82.5759 210.316 82.1122L211.408 81.6222C211.443 81.6067 211.475 81.5843 211.501 81.5564C211.528 81.5284 211.549 81.4954 211.563 81.4593C211.576 81.4232 211.583 81.3847 211.582 81.3461C211.58 81.3075 211.571 81.2696 211.555 81.2345L211.006 80.0311C210.974 79.96 210.914 79.9047 210.84 79.8772C210.767 79.8497 210.686 79.8524 210.614 79.8845L209.523 80.3745C209.234 79.9973 208.883 79.6713 208.486 79.41L208.909 78.2989C208.922 78.2628 208.929 78.2243 208.928 78.1857C208.927 78.1471 208.918 78.1091 208.902 78.0739C208.886 78.0387 208.863 78.0071 208.834 77.9809C208.806 77.9547 208.773 77.9343 208.736 77.9211L207.491 77.4545C207.417 77.4272 207.336 77.4299 207.265 77.4619C207.193 77.4939 207.137 77.5527 207.109 77.6256L206.686 78.7367C206.214 78.6736 205.734 78.6893 205.266 78.7833L204.772 77.7011C204.739 77.63 204.68 77.5748 204.607 77.5473C204.533 77.5198 204.452 77.5224 204.381 77.5545L203.168 78.0989C203.132 78.1144 203.1 78.1368 203.074 78.1648C203.047 78.1928 203.026 78.2257 203.012 78.2618C202.999 78.2979 202.992 78.3364 202.993 78.375C202.995 78.4136 203.004 78.4516 203.02 78.4867L203.514 79.57C203.134 79.8554 202.805 80.2029 202.541 80.5978L201.421 80.1789C201.385 80.165 201.346 80.1584 201.307 80.1594C201.268 80.1605 201.23 80.1693 201.195 80.1852C201.159 80.2011 201.127 80.2238 201.101 80.2521C201.074 80.2804 201.053 80.3137 201.04 80.35L200.57 81.5856C200.556 81.6217 200.55 81.6601 200.551 81.6987C200.552 81.7373 200.561 81.7752 200.577 81.8104C200.593 81.8455 200.616 81.8771 200.644 81.9033C200.673 81.9296 200.706 81.95 200.742 81.9633L201.863 82.3822C201.799 82.8511 201.815 83.3275 201.91 83.7911L200.818 84.2811C200.782 84.2963 200.75 84.3184 200.723 84.3461C200.697 84.3738 200.676 84.4065 200.661 84.4423C200.647 84.4782 200.641 84.5165 200.641 84.555C200.642 84.5935 200.651 84.6315 200.666 84.6667L201.215 85.87C201.248 85.9412 201.308 85.9965 201.381 86.0239C201.455 86.0514 201.536 86.0488 201.608 86.0167L202.7 85.5267C202.988 85.9041 203.338 86.2302 203.735 86.4911L203.313 87.6022C203.299 87.6384 203.293 87.6769 203.294 87.7156C203.295 87.7543 203.304 87.7923 203.32 87.8275C203.336 87.8627 203.359 87.8944 203.387 87.9208C203.416 87.9472 203.449 87.9677 203.485 87.9811L204.732 88.4467C204.805 88.4739 204.886 88.4712 204.958 88.4392C205.029 88.4072 205.085 88.3484 205.113 88.2756L205.535 87.1645C206.008 87.2276 206.488 87.2118 206.955 87.1178L207.45 88.2011C207.482 88.2722 207.542 88.3274 207.615 88.3547C207.689 88.382 207.77 88.3791 207.841 88.3467L209.054 87.8022C209.09 87.7867 209.121 87.7643 209.148 87.7364C209.175 87.7084 209.196 87.6754 209.209 87.6393C209.223 87.6032 209.229 87.5647 209.228 87.5261C209.227 87.4875 209.218 87.4496 209.202 87.4145L208.709 86.3311C209.088 86.0458 209.417 85.6987 209.681 85.3045L210.801 85.7233C210.874 85.7506 210.955 85.7479 211.027 85.7159C211.098 85.6839 211.154 85.6251 211.183 85.5522L211.652 84.3156C211.679 84.2434 211.677 84.1633 211.645 84.093C211.613 84.0226 211.555 83.9676 211.483 83.94ZM207.832 83.5945C207.658 84.0483 207.311 84.4147 206.867 84.6137C206.423 84.8127 205.919 84.8281 205.464 84.6567C205.239 84.5736 205.033 84.4468 204.857 84.2836C204.681 84.1205 204.539 83.9241 204.44 83.7058C204.34 83.4876 204.285 83.2518 204.277 83.012C204.269 82.7723 204.308 82.5333 204.393 82.3089C204.568 81.8551 204.914 81.4887 205.358 81.2897C205.802 81.0907 206.306 81.0752 206.761 81.2467C206.986 81.3296 207.192 81.4563 207.368 81.6195C207.544 81.7827 207.686 81.979 207.786 82.1973C207.885 82.4156 207.941 82.6515 207.949 82.8913C207.957 83.1311 207.917 83.3701 207.832 83.5945Z" fill="#FFDBD3"/>
<path d="M207.016 80.5778C206.382 80.3396 205.68 80.3614 205.063 80.6384C204.445 80.9154 203.962 81.4252 203.719 82.0567C203.601 82.3692 203.546 82.7019 203.558 83.0357C203.569 83.3695 203.646 83.6978 203.785 84.0016C203.924 84.3055 204.121 84.5789 204.366 84.8061C204.611 85.0333 204.898 85.2098 205.211 85.3255C205.845 85.5636 206.546 85.5418 207.164 85.2648C207.781 84.9878 208.264 84.478 208.507 83.8467C208.625 83.5342 208.68 83.2015 208.668 82.8678C208.657 82.534 208.58 82.2058 208.441 81.9019C208.303 81.5981 208.105 81.3247 207.861 81.0974C207.616 80.8702 207.329 80.6936 207.016 80.5778ZM207.571 83.4978C207.423 83.8834 207.128 84.1947 206.751 84.364C206.374 84.5332 205.946 84.5465 205.559 84.4011C205.367 84.3307 205.191 84.2228 205.041 84.0839C204.891 83.9449 204.77 83.7775 204.686 83.5915C204.601 83.4054 204.554 83.2044 204.547 83.0001C204.541 82.7957 204.575 82.5921 204.648 82.4011C204.796 82.0155 205.091 81.7041 205.468 81.5349C205.845 81.3657 206.273 81.3523 206.66 81.4978C206.852 81.5679 207.029 81.6755 207.179 81.8143C207.329 81.9531 207.451 82.1205 207.536 82.3065C207.621 82.4926 207.668 82.6937 207.675 82.8982C207.681 83.1027 207.647 83.3065 207.575 83.4978H207.571Z" fill="#D2614B"/>
<path d="M216.327 84.1778L215.591 83.9022C215.633 83.5941 215.622 83.2813 215.56 82.9767L216.278 82.6545C216.301 82.6441 216.322 82.6293 216.339 82.6108C216.357 82.5924 216.371 82.5706 216.38 82.5468C216.389 82.5231 216.393 82.4978 216.392 82.4724C216.391 82.447 216.385 82.422 216.375 82.3989L216.013 81.6089C216.003 81.5856 215.988 81.5647 215.969 81.5472C215.951 81.5298 215.929 81.5162 215.905 81.5072C215.881 81.4982 215.856 81.494 215.83 81.4949C215.805 81.4957 215.78 81.5016 215.757 81.5122L215.039 81.8345C214.849 81.5863 214.619 81.3719 214.358 81.2L214.636 80.47C214.654 80.4223 214.652 80.3693 214.631 80.3227C214.611 80.276 214.572 80.2395 214.525 80.2211L213.706 79.9156C213.658 79.8971 213.604 79.8984 213.557 79.9192C213.51 79.94 213.473 79.9787 213.455 80.0267L213.177 80.7567C212.866 80.7152 212.551 80.7257 212.243 80.7878L211.919 80.0756C211.897 80.0289 211.858 79.9927 211.81 79.9746C211.762 79.9565 211.708 79.9581 211.661 79.9789L210.863 80.3378C210.84 80.348 210.819 80.3627 210.802 80.3811C210.784 80.3995 210.771 80.4211 210.762 80.4448C210.753 80.4685 210.749 80.4937 210.75 80.519C210.75 80.5443 210.756 80.5692 210.767 80.5922L211.091 81.3045C210.842 81.4921 210.626 81.7205 210.452 81.98L209.716 81.7045C209.668 81.6863 209.614 81.6877 209.567 81.7085C209.52 81.7293 209.483 81.7678 209.465 81.8156L209.157 82.6278C209.148 82.6514 209.143 82.6766 209.144 82.702C209.144 82.7274 209.15 82.7524 209.16 82.7755C209.17 82.7987 209.185 82.8196 209.204 82.8369C209.222 82.8543 209.244 82.8678 209.268 82.8767L210.003 83.1522C209.962 83.4603 209.972 83.7732 210.035 84.0778L209.317 84.4C209.294 84.4102 209.273 84.4249 209.255 84.4433C209.238 84.4617 209.224 84.4833 209.215 84.507C209.206 84.5307 209.202 84.5559 209.203 84.5812C209.204 84.6065 209.21 84.6314 209.22 84.6545L209.581 85.4456C209.603 85.4923 209.642 85.5287 209.69 85.5469C209.738 85.565 209.791 85.5633 209.838 85.5422L210.556 85.2222C210.746 85.4701 210.976 85.6845 211.237 85.8567L210.959 86.5867C210.95 86.6102 210.946 86.6354 210.946 86.6606C210.947 86.6858 210.953 86.7107 210.963 86.7337C210.973 86.7568 210.988 86.7775 211.006 86.7948C211.025 86.8121 211.046 86.8256 211.07 86.8345L211.89 87.1411C211.938 87.1593 211.991 87.1578 212.038 87.137C212.085 87.1162 212.121 87.0777 212.14 87.03L212.418 86.3C212.729 86.3415 213.044 86.331 213.351 86.2689L213.676 86.9811C213.697 87.0278 213.737 87.0639 213.785 87.0818C213.833 87.0997 213.887 87.0979 213.933 87.0767L214.731 86.7189C214.754 86.7086 214.775 86.6937 214.793 86.6753C214.81 86.6568 214.824 86.635 214.833 86.6113C214.842 86.5875 214.846 86.5622 214.845 86.5368C214.844 86.5114 214.838 86.4864 214.828 86.4633L214.503 85.7522C214.753 85.5648 214.969 85.3364 215.142 85.0767L215.879 85.3522C215.927 85.3704 215.98 85.369 216.027 85.3482C216.074 85.3274 216.111 85.2889 216.13 85.2411L216.439 84.4289C216.448 84.4051 216.453 84.3796 216.452 84.354C216.451 84.3285 216.446 84.3033 216.435 84.2799C216.425 84.2565 216.41 84.2355 216.391 84.218C216.373 84.2004 216.351 84.1868 216.327 84.1778ZM213.928 83.9556C213.813 84.2534 213.585 84.4939 213.294 84.6245C213.002 84.7552 212.671 84.7656 212.372 84.6533C212.224 84.5988 212.089 84.5156 211.973 84.4084C211.858 84.3013 211.764 84.1723 211.699 84.029C211.633 83.8857 211.597 83.7308 211.591 83.5733C211.586 83.4157 211.611 83.2587 211.667 83.1111C211.782 82.8133 212.01 82.5728 212.301 82.4422C212.592 82.3115 212.923 82.3011 213.222 82.4133C213.37 82.4678 213.505 82.5508 213.62 82.6576C213.736 82.7644 213.829 82.8929 213.894 83.0358C213.96 83.1786 213.997 83.333 214.002 83.4901C214.008 83.6472 213.983 83.8038 213.928 83.9511V83.9556Z" fill="#E9A091"/>
<path d="M213.39 81.9678C212.974 81.8115 212.512 81.8259 212.107 82.008C211.701 82.1901 211.384 82.5251 211.224 82.94C211.147 83.1454 211.111 83.364 211.119 83.5833C211.126 83.8027 211.177 84.0183 211.268 84.218C211.359 84.4176 211.489 84.5974 211.649 84.7468C211.81 84.8963 211.999 85.0125 212.204 85.0889C212.621 85.2452 213.082 85.2308 213.488 85.0487C213.893 84.8666 214.211 84.5316 214.371 84.1167C214.448 83.9112 214.484 83.6925 214.476 83.4731C214.469 83.2538 214.418 83.038 214.327 82.8384C214.236 82.6387 214.106 82.459 213.945 82.3096C213.784 82.1602 213.596 82.044 213.39 81.9678ZM213.758 83.8878C213.66 84.1409 213.466 84.3452 213.218 84.4563C212.971 84.5674 212.689 84.5763 212.435 84.4811C212.31 84.4348 212.194 84.3639 212.096 84.2727C211.997 84.1816 211.918 84.0718 211.862 83.9498C211.807 83.8278 211.776 83.696 211.771 83.5619C211.767 83.4279 211.789 83.2943 211.836 83.1689C211.934 82.9156 212.128 82.7111 212.375 82.5999C212.623 82.4888 212.905 82.48 213.159 82.5755C213.285 82.6219 213.4 82.6927 213.499 82.784C213.597 82.8753 213.676 82.9852 213.732 83.1073C213.788 83.2294 213.819 83.3614 213.823 83.4955C213.827 83.6297 213.805 83.7634 213.758 83.8889V83.8878Z" fill="#D2614B"/>
<path opacity="0.38" d="M444.188 66H377.95L386.164 107.292C386.245 107.109 386.334 106.931 386.425 106.759H444.188C447.285 106.759 449.9 104.177 449.9 101.12V71.6322C449.9 68.5767 447.285 66 444.188 66Z" fill="#5681BF"/>
<path opacity="0.38" d="M382.725 107C382.948 107.547 383.104 108.119 383.191 108.703C383.282 109.412 383.282 110.129 383.191 110.838C383.094 111.51 382.915 112.168 382.656 112.797L382.637 112.858C382.41 113.37 382.125 113.855 381.788 114.302C381.501 114.662 381.176 114.989 380.819 115.278L380.781 115.312L380.764 115.324L380.754 115.331C380.409 115.574 380.041 115.781 379.654 115.95C379.543 115.993 379.432 116.037 379.31 116.073C379.229 116.097 379.158 116.145 379.106 116.212C379.055 116.279 379.027 116.36 379.025 116.444C379.026 116.547 379.068 116.644 379.14 116.716C379.213 116.788 379.311 116.828 379.413 116.828C380.555 116.828 381.688 116.618 382.754 116.208C383.819 115.792 384.81 115.21 385.691 114.481C386.569 113.757 387.335 112.907 387.963 111.958C388.59 111.013 389.07 109.978 389.385 108.889C389.617 108.098 389.747 107.281 389.771 106.458L382.468 106.463C382.555 106.636 382.645 106.813 382.725 107Z" fill="#5681BF"/>
<path d="M370.896 70.35V99.6233C370.896 102.658 373.48 105.222 376.54 105.222H377.612H384.916L376.54 64.7511C373.48 64.7511 370.896 67.3155 370.896 70.35Z" fill="#414347"/>
<path d="M442 64.7511H376.54L384.658 105.751C384.738 105.569 384.824 105.392 384.916 105.221H442C445.06 105.221 447.646 102.657 447.646 99.6222V70.35C447.648 67.3155 445.062 64.7511 442 64.7511Z" fill="#414347"/>
<path d="M428.573 93.3333H394.802C394.665 93.3288 394.529 93.3519 394.401 93.4011C394.274 93.4504 394.157 93.5248 394.059 93.62C393.96 93.7153 393.882 93.8293 393.829 93.9554C393.775 94.0814 393.748 94.217 393.748 94.3539C393.748 94.4908 393.775 94.6264 393.829 94.7524C393.882 94.8785 393.96 94.9925 394.059 95.0877C394.157 95.183 394.274 95.2574 394.401 95.3067C394.529 95.3559 394.665 95.379 394.802 95.3744H428.573C428.71 95.379 428.847 95.3559 428.974 95.3067C429.102 95.2574 429.219 95.183 429.317 95.0877C429.416 94.9925 429.494 94.8785 429.547 94.7524C429.601 94.6264 429.628 94.4908 429.628 94.3539C429.628 94.217 429.601 94.0814 429.547 93.9554C429.494 93.8293 429.416 93.7153 429.317 93.62C429.219 93.5248 429.102 93.4504 428.974 93.4011C428.847 93.3519 428.71 93.3288 428.573 93.3333ZM428.563 89.2978H379.475C379.204 89.2978 378.944 89.4054 378.753 89.5969C378.561 89.7884 378.453 90.0481 378.453 90.3189C378.453 90.5897 378.561 90.8494 378.753 91.0409C378.944 91.2324 379.204 91.34 379.475 91.34H428.563C428.834 91.34 429.094 91.2324 429.285 91.0409C429.477 90.8494 429.585 90.5897 429.585 90.3189C429.585 90.0481 429.477 89.7884 429.285 89.5969C429.094 89.4054 428.834 89.2978 428.563 89.2978ZM423.84 79.7778H390.069C389.932 79.7733 389.796 79.7963 389.668 79.8456C389.54 79.8948 389.424 79.9693 389.325 80.0645C389.227 80.1597 389.149 80.2737 389.095 80.3998C389.042 80.5259 389.014 80.6614 389.014 80.7983C389.014 80.9353 389.042 81.0708 389.095 81.1969C389.149 81.3229 389.227 81.437 389.325 81.5322C389.424 81.6274 389.54 81.7018 389.668 81.7511C389.796 81.8004 389.932 81.8234 390.069 81.8189H423.84C423.977 81.8234 424.113 81.8004 424.241 81.7511C424.369 81.7018 424.485 81.6274 424.584 81.5322C424.682 81.437 424.76 81.3229 424.814 81.1969C424.867 81.0708 424.895 80.9353 424.895 80.7983C424.895 80.6614 424.867 80.5259 424.814 80.3998C424.76 80.2737 424.682 80.1597 424.584 80.0645C424.485 79.9693 424.369 79.8948 424.241 79.8456C424.113 79.7963 423.977 79.7733 423.84 79.7778ZM439.168 75.7467H390.079C389.942 75.7422 389.806 75.7652 389.678 75.8145C389.55 75.8637 389.434 75.9382 389.335 76.0334C389.237 76.1286 389.159 76.2426 389.105 76.3687C389.052 76.4948 389.024 76.6303 389.024 76.7672C389.024 76.9042 389.052 77.0397 389.105 77.1658C389.159 77.2918 389.237 77.4059 389.335 77.5011C389.434 77.5963 389.55 77.6707 389.678 77.72C389.806 77.7692 389.942 77.7923 390.079 77.7878H439.168C439.305 77.7923 439.441 77.7692 439.569 77.72C439.697 77.6707 439.813 77.5963 439.912 77.5011C440.01 77.4059 440.088 77.2918 440.142 77.1658C440.195 77.0397 440.223 76.9042 440.223 76.7672C440.223 76.6303 440.195 76.4948 440.142 76.3687C440.088 76.2426 440.01 76.1286 439.912 76.0334C439.813 75.9382 439.697 75.8637 439.569 75.8145C439.441 75.7652 439.305 75.7422 439.168 75.7467ZM381.121 72.0733C380.706 72.073 380.292 72.123 379.889 72.2222C379.247 72.3792 378.643 72.6617 378.111 73.0534C377.579 73.4451 377.13 73.9383 376.789 74.5044C376.447 75.0659 376.221 75.6903 376.124 76.3407C376.027 76.991 376.061 77.6542 376.225 78.2911C376.501 79.377 377.132 80.3394 378.018 81.0256C378.903 81.7118 379.993 82.0826 381.113 82.0789C381.528 82.0785 381.942 82.0274 382.345 81.9267C382.986 81.7702 383.591 81.4882 384.123 81.0968C384.655 80.7055 385.104 80.2126 385.445 79.6467C385.787 79.0849 386.013 78.4605 386.111 77.8101C386.208 77.1596 386.175 76.4963 386.012 75.8589C385.735 74.7732 385.104 73.8111 384.218 73.1253C383.331 72.4395 382.242 72.0693 381.121 72.0733Z" fill="white"/>
<path d="M383.715 76.03C383.547 75.3533 383.117 74.7711 382.519 74.4115C381.922 74.052 381.206 73.9445 380.529 74.1128C379.853 74.2811 379.27 74.7113 378.911 75.3088C378.551 75.9063 378.444 76.6222 378.612 77.2989C378.774 77.9301 379.168 78.4771 379.715 78.8311L376.872 83.7145H385.444L382.603 78.8333C383.058 78.5405 383.409 78.1128 383.609 77.6101C383.808 77.1074 383.846 76.5549 383.715 76.03Z" fill="#EF7C59"/>
<path d="M438.752 85.7778C438.35 85.6771 437.937 85.626 437.522 85.6256C436.402 85.6215 435.313 85.9917 434.427 86.6773C433.541 87.3629 432.91 88.3247 432.633 89.41C432.47 90.0473 432.436 90.7109 432.533 91.3616C432.63 92.0123 432.857 92.637 433.199 93.1989C433.539 93.765 433.988 94.2582 434.519 94.6499C435.051 95.0416 435.655 95.3241 436.297 95.4811C437.59 95.8061 438.96 95.6064 440.107 94.9255C441.254 94.2447 442.085 93.1379 442.419 91.8467C442.581 91.2097 442.615 90.5467 442.517 89.8966C442.42 89.2465 442.193 88.6224 441.851 88.0611C441.511 87.4949 441.062 87.0016 440.53 86.6097C439.998 86.2178 439.394 85.9351 438.752 85.7778Z" fill="white"/>
<path d="M440.152 89.3511C439.984 88.6742 439.554 88.092 438.956 87.7324C438.358 87.3729 437.642 87.2655 436.965 87.4339C436.288 87.6023 435.706 88.0327 435.346 88.6304C434.987 89.2282 434.88 89.9442 435.048 90.6211C435.211 91.2519 435.604 91.7984 436.151 92.1522L433.309 97.0411H441.889L439.047 92.16C439.501 91.8659 439.852 91.4368 440.051 90.9331C440.249 90.4293 440.285 89.8761 440.152 89.3511Z" fill="#EF7C59"/>
<path d="M381.316 105.752C381.538 106.299 381.695 106.87 381.781 107.454C381.872 108.163 381.872 108.88 381.781 109.589C381.685 110.261 381.505 110.919 381.247 111.548L381.227 111.609C381 112.121 380.715 112.606 380.378 113.053C380.091 113.413 379.767 113.74 379.409 114.029L379.371 114.063L379.354 114.074L379.344 114.082C378.999 114.325 378.631 114.533 378.244 114.702C378.133 114.744 378.022 114.788 377.9 114.826C377.819 114.849 377.748 114.897 377.697 114.964C377.646 115.03 377.618 115.112 377.617 115.196C377.617 115.298 377.658 115.395 377.731 115.467C377.803 115.539 377.901 115.579 378.003 115.579C379.146 115.579 380.278 115.369 381.344 114.96C382.409 114.544 383.4 113.961 384.281 113.233C385.16 112.509 385.925 111.658 386.553 110.709C387.182 109.768 387.663 108.736 387.98 107.65C388.212 106.859 388.342 106.042 388.366 105.219H381.062C381.148 105.393 381.236 105.57 381.316 105.752Z" fill="#414347"/>
<path d="M95.1991 113.632H75.858C75.5948 113.632 75.3813 113.846 75.3813 114.109V127.202C75.3813 127.465 75.5948 127.679 75.858 127.679H95.1991C95.4624 127.679 95.6758 127.465 95.6758 127.202V114.109C95.6758 113.846 95.4624 113.632 95.1991 113.632Z" fill="white"/>
<path d="M93.7168 113.57H77.0368C76.7894 113.572 76.5459 113.631 76.3257 113.744C76.1055 113.857 75.9149 114.02 75.769 114.22C75.779 114.227 75.7913 114.229 75.8013 114.237L85.1579 121.507C85.269 121.594 85.4059 121.641 85.5468 121.641C85.6878 121.641 85.8247 121.594 85.9357 121.507L95.2357 114.338C95.0586 114.102 94.8295 113.909 94.566 113.776C94.3026 113.643 94.012 113.573 93.7168 113.57Z" fill="#F3CE90"/>
<path d="M86.2711 121.989C86.0652 122.151 85.8108 122.239 85.5488 122.239C85.2869 122.239 85.0325 122.151 84.8266 121.989L83.4066 120.886L76.2311 127.634C76.2255 127.634 76.2188 127.641 76.2133 127.646C76.371 127.718 76.5421 127.755 76.7155 127.757H94.3822C94.4799 127.756 94.5773 127.744 94.6722 127.72L87.53 121.026L86.2711 121.989ZM75.42 115.28V126.38C75.4186 126.728 75.5469 127.065 75.78 127.323C75.7927 127.272 75.8192 127.224 75.8566 127.187L82.9422 120.52L75.4977 114.742C75.445 114.917 75.4188 115.098 75.42 115.28ZM88 120.66L95.17 127.379C95.1838 127.395 95.1961 127.413 95.2066 127.431C95.3564 127.3 95.4762 127.138 95.5581 126.957C95.64 126.776 95.6819 126.579 95.6811 126.38V115.642C95.6817 115.372 95.6316 115.104 95.5333 114.852L88 120.66Z" fill="#F3CE90"/>
<path d="M94.9847 117.678C97.0637 117.678 98.7491 116.007 98.7491 113.946C98.7491 111.884 97.0637 110.213 94.9847 110.213C92.9056 110.213 91.2202 111.884 91.2202 113.946C91.2202 116.007 92.9056 117.678 94.9847 117.678Z" fill="#EF7C59"/>
<path d="M93.3213 112.749V113.172L93.7391 112.918V115.388H94.1524V112.472H93.7391L93.3213 112.749Z" fill="white"/>
<path d="M95.6579 112.437C95.5442 112.429 95.4302 112.445 95.3228 112.483C95.2154 112.522 95.117 112.581 95.0335 112.659C94.9586 112.741 94.9011 112.837 94.8642 112.942C94.8274 113.047 94.812 113.158 94.819 113.269V114.594C94.8132 114.708 94.8305 114.822 94.87 114.929C94.9096 115.036 94.9704 115.134 95.0489 115.216C95.1273 115.299 95.2218 115.365 95.3265 115.409C95.4312 115.454 95.544 115.478 95.6579 115.478C95.7719 115.478 95.8846 115.454 95.9893 115.409C96.094 115.365 96.1885 115.299 96.267 115.216C96.3454 115.134 96.4063 115.036 96.4458 114.929C96.4853 114.822 96.5027 114.708 96.4968 114.594V113.269C96.5095 113.156 96.4964 113.042 96.4585 112.935C96.4207 112.828 96.359 112.731 96.2783 112.651C96.1975 112.572 96.0997 112.511 95.9923 112.475C95.8848 112.439 95.7705 112.427 95.6579 112.441V112.437ZM96.0846 114.59C96.0924 114.708 96.0555 114.824 95.9813 114.916C95.9381 114.956 95.8871 114.986 95.8314 115.005C95.7757 115.025 95.7166 115.032 95.6579 115.027C95.5994 115.032 95.5405 115.025 95.4849 115.006C95.4294 114.986 95.3785 114.956 95.3357 114.916C95.2611 114.824 95.2237 114.708 95.2313 114.59V113.264C95.2232 113.147 95.2601 113.03 95.3346 112.939C95.4264 112.866 95.5404 112.826 95.6579 112.826C95.7754 112.826 95.8895 112.866 95.9813 112.939C96.0557 113.03 96.0926 113.147 96.0846 113.264V114.59Z" fill="white"/>
<path d="M175.258 79.6733C174.651 82.0752 173.22 84.1876 171.214 85.6411C170.017 86.5164 168.65 87.1329 167.201 87.4515C165.752 87.7701 164.253 87.7838 162.799 87.4918C161.344 87.1997 159.967 86.6082 158.753 85.755C157.54 84.9018 156.517 83.8054 155.75 82.5356C155.026 81.3466 154.548 80.0247 154.342 78.648C154.137 77.2712 154.21 75.8673 154.555 74.5189C155.141 72.2222 156.477 70.1869 158.351 68.7362C160.226 67.2854 162.531 66.5023 164.901 66.5111C165.779 66.5124 166.653 66.6202 167.504 66.8322C168.862 67.1654 170.14 67.7637 171.265 68.5928C172.39 69.422 173.34 70.4655 174.06 71.6633C174.783 72.8515 175.261 74.172 175.467 75.5475C175.673 76.923 175.601 78.3257 175.258 79.6733Z" fill="#E68471"/>
<path d="M171.214 85.6411C169.415 86.9413 167.257 87.6539 165.037 87.6815C162.817 87.7092 160.643 87.0505 158.811 85.7955L162 80.3189C161.097 79.7358 160.386 78.9004 159.955 77.9165C159.523 76.9326 159.39 75.8435 159.572 74.7847C159.754 73.7258 160.244 72.7438 160.979 71.9607C161.715 71.1776 162.665 70.6279 163.71 70.38C166.69 69.6389 169.717 71.4367 170.463 74.3911C170.74 75.5009 170.663 76.6695 170.242 77.7332C169.822 78.7969 169.079 79.7026 168.119 80.3233L171.214 85.6411Z" fill="white"/>
<path d="M171.058 188.048C171.058 188.048 172.99 202.444 172.885 203.27C172.781 204.096 180.614 222.328 180.614 222.741C180.614 223.154 204.428 216.528 204.428 216.528C204.428 216.528 203.592 203.788 200.772 196.33C197.952 188.872 171.058 188.048 171.058 188.048Z" fill="#2C4DA2"/>
<path d="M133.889 196.813C132.685 195.778 131.222 194.953 129.644 194.591C125.495 194.229 121.901 197.512 121.326 198.958C121.011 200.058 121.104 201.426 121.908 203.396C123.598 207.532 126.772 212.043 126.772 212.043C128.229 214.128 129.743 213.322 129.504 212.266C130.688 215.908 133.596 215.017 133.011 213.148C134.089 215.513 136.641 213.942 135.431 212.259L135.483 212.179C136.251 213.6 138.281 212.357 137.281 209.922L134.196 201.908C134.196 201.908 134.991 202.807 136.05 203.908C137.828 205.759 139.494 204.13 139.494 204.13L136.908 200.352C136.908 200.352 135.611 198.256 133.889 196.813Z" fill="#F5B0A6"/>
<path d="M129.069 205.482L132.834 213.231L133.197 213.057L129.431 205.309L129.069 205.482Z" fill="#F18A8B"/>
<path d="M126.047 205.832L129.324 212.467L129.686 212.291L126.408 205.657L126.047 205.832Z" fill="#F18A8B"/>
<path d="M131.735 204.516L135.432 212.376L135.798 212.207L132.101 204.348L131.735 204.516Z" fill="#F18A8B"/>
<path d="M133.093 199.841L134.017 201.986L134.387 201.829L133.463 199.684L133.093 199.841Z" fill="#F18A8B"/>
<path d="M172.028 125.649C174.623 122.608 172.228 120.547 170.883 122.093C172.399 119.846 169.594 118.472 168.762 120.458H168.662C169.506 119.001 167.281 117.902 165.662 120.124L158.98 128.871C159.039 128.279 158.625 122.676 155.332 123.261C155.332 123.261 155.443 129.732 155.655 132.079C155.669 133.161 155.849 134.234 156.191 135.261C158.152 139.098 163.058 140.443 164.664 140.15C165.818 139.817 166.986 138.987 168.302 137.199C171.06 133.44 173.335 128.173 173.335 128.173C174.39 125.742 172.839 124.857 172.028 125.649Z" fill="#F5B0A6"/>
<path d="M161.437 126.722L161.5 127.198C161.527 127.198 164.055 127.014 168.781 133.521L169.174 133.241C164.222 126.426 161.555 126.708 161.437 126.722Z" fill="#F18A8B"/>
<path d="M165.841 129.527L166.25 129.784L171.088 122.217L170.679 121.96L165.841 129.527Z" fill="#F18A8B"/>
<path d="M167.815 131.987L168.227 132.241L172.717 125.113L172.307 124.859L167.815 131.987Z" fill="#F18A8B"/>
<path d="M163.516 127.714L163.921 127.977L168.895 120.41L168.489 120.148L163.516 127.714Z" fill="#F18A8B"/>
<path d="M159.069 128.672L159.065 128.683L158.975 128.893L159.069 128.672Z" fill="#F18A8B"/>
<path d="M159.162 128.451L159.064 128.683V128.672L158.97 128.894L159.06 128.684L158.969 128.894C159.073 128.939 161.503 130.03 160.534 134.22L161.007 134.331C162.073 129.727 159.191 128.463 159.162 128.451Z" fill="#F18A8B"/>
</g>
<defs>
<clipPath id="clip0_6865_61575">
<rect width="520" height="346.667" fill="white"/>
</clipPath>
</defs>
</svg>
